<svg width="800" height="370" viewBox="0 0 800 370" fill="none" xmlns="http://www.w3.org/2000/svg">
<rect x="232" y="2" width="212" height="366" rx="8" fill="#35D7E1" fill-opacity="0.2" stroke="#35D7E1" stroke-width="4" stroke-linecap="round" stroke-linejoin="round" stroke-dasharray="4 12"/>
<g clip-path="url(#clip0)">
<path d="M168.48 68.944H162.832V74H161.488V62.832H162.832V67.76H168.48V62.832H169.824V74H168.48V68.944ZM173.312 63.808C173.035 63.808 172.833 63.744 172.705 63.616C172.587 63.4773 172.529 63.3013 172.529 63.088V62.88C172.529 62.6667 172.587 62.496 172.705 62.368C172.833 62.2293 173.035 62.16 173.312 62.16C173.59 62.16 173.787 62.2293 173.905 62.368C174.033 62.496 174.097 62.6667 174.097 62.88V63.088C174.097 63.3013 174.033 63.4773 173.905 63.616C173.787 63.744 173.59 63.808 173.312 63.808ZM172.673 65.744H173.953V74H172.673V65.744ZM183.633 74.912C183.633 75.7653 183.297 76.3893 182.625 76.784C181.963 77.1893 180.966 77.392 179.633 77.392C178.342 77.392 177.414 77.216 176.849 76.864C176.283 76.512 176.001 76.0107 176.001 75.36C176.001 74.912 176.118 74.56 176.353 74.304C176.587 74.0587 176.907 73.8773 177.312 73.76V73.584C176.822 73.3493 176.577 72.9653 176.577 72.432C176.577 72.016 176.71 71.7013 176.977 71.488C177.243 71.264 177.585 71.0987 178.001 70.992V70.928C177.51 70.6933 177.126 70.3573 176.849 69.92C176.582 69.4827 176.449 68.976 176.449 68.4C176.449 67.984 176.523 67.6 176.673 67.248C176.822 66.896 177.03 66.5973 177.297 66.352C177.574 66.096 177.899 65.8987 178.273 65.76C178.657 65.6213 179.083 65.552 179.553 65.552C180.139 65.552 180.662 65.6587 181.121 65.872V65.728C181.121 65.408 181.195 65.1467 181.345 64.944C181.494 64.7307 181.739 64.624 182.081 64.624H183.312V65.744H181.745V66.272C182.043 66.528 182.273 66.8373 182.433 67.2C182.603 67.552 182.689 67.952 182.689 68.4C182.689 68.816 182.614 69.2 182.465 69.552C182.315 69.904 182.102 70.208 181.825 70.464C181.558 70.7093 181.233 70.9013 180.849 71.04C180.465 71.1787 180.038 71.248 179.569 71.248C179.302 71.248 179.035 71.2213 178.769 71.168C178.491 71.2427 178.241 71.3547 178.017 71.504C177.793 71.6427 177.681 71.84 177.681 72.096C177.681 72.3413 177.798 72.5067 178.033 72.592C178.267 72.6773 178.571 72.72 178.945 72.72H180.705C181.729 72.72 182.47 72.9173 182.929 73.312C183.398 73.696 183.633 74.2293 183.633 74.912ZM182.433 75.008C182.433 74.6773 182.305 74.4107 182.049 74.208C181.803 74.016 181.361 73.92 180.721 73.92H177.969C177.457 74.1547 177.201 74.528 177.201 75.04C177.201 75.4027 177.334 75.712 177.601 75.968C177.878 76.224 178.342 76.352 178.993 76.352H180.177C180.891 76.352 181.446 76.24 181.841 76.016C182.235 75.792 182.433 75.456 182.433 75.008ZM179.569 70.224C180.113 70.224 180.545 70.096 180.865 69.84C181.185 69.5733 181.345 69.168 181.345 68.624V68.176C181.345 67.632 181.185 67.232 180.865 66.976C180.545 66.7093 180.113 66.576 179.569 66.576C179.025 66.576 178.593 66.7093 178.273 66.976C177.953 67.232 177.793 67.632 177.793 68.176V68.624C177.793 69.168 177.953 69.5733 178.273 69.84C178.593 70.096 179.025 70.224 179.569 70.224ZM185.126 62.16H186.406V67.088H186.47C186.672 66.6187 186.955 66.2453 187.318 65.968C187.691 65.6907 188.187 65.552 188.806 65.552C189.659 65.552 190.331 65.8293 190.822 66.384C191.323 66.928 191.574 67.7013 191.574 68.704V74H190.294V68.928C190.294 67.4453 189.67 66.704 188.422 66.704C188.166 66.704 187.915 66.736 187.67 66.8C187.435 66.864 187.222 66.96 187.03 67.088C186.838 67.216 186.683 67.3813 186.566 67.584C186.459 67.776 186.406 68.0053 186.406 68.272V74H185.126V62.16Z" fill="#3B2F59"/>
<rect opacity="0.8" x="201" y="67" width="1000" height="1" fill="#C8C5DB"/>
</g>
<g clip-path="url(#clip1)">
<path d="M170.192 167.592H170.112L169.168 169.464L166.496 174.328L163.824 169.464L162.88 167.592H162.8V177H161.488V165.832H163.28L166.48 171.848H166.56L169.776 165.832H171.504V177H170.192V167.592ZM177.448 177.192C176.883 177.192 176.371 177.091 175.912 176.888C175.464 176.685 175.075 176.397 174.744 176.024C174.424 175.64 174.174 175.187 173.992 174.664C173.822 174.131 173.736 173.533 173.736 172.872C173.736 172.221 173.822 171.629 173.992 171.096C174.174 170.563 174.424 170.109 174.744 169.736C175.075 169.352 175.464 169.059 175.912 168.856C176.371 168.653 176.883 168.552 177.448 168.552C178.003 168.552 178.499 168.653 178.936 168.856C179.374 169.059 179.747 169.341 180.056 169.704C180.366 170.056 180.6 170.477 180.76 170.968C180.931 171.459 181.016 171.997 181.016 172.584V173.192H175.08V173.576C175.08 173.928 175.134 174.259 175.24 174.568C175.358 174.867 175.518 175.128 175.72 175.352C175.934 175.576 176.19 175.752 176.488 175.88C176.798 176.008 177.144 176.072 177.528 176.072C178.051 176.072 178.504 175.949 178.888 175.704C179.283 175.459 179.587 175.107 179.8 174.648L180.712 175.304C180.446 175.869 180.03 176.328 179.464 176.68C178.899 177.021 178.227 177.192 177.448 177.192ZM177.448 169.624C177.096 169.624 176.776 169.688 176.488 169.816C176.2 169.933 175.95 170.104 175.736 170.328C175.534 170.552 175.374 170.819 175.256 171.128C175.139 171.427 175.08 171.757 175.08 172.12V172.232H179.64V172.056C179.64 171.32 179.438 170.733 179.032 170.296C178.638 169.848 178.11 169.624 177.448 169.624ZM188.406 175.656H188.342C187.84 176.68 187.035 177.192 185.926 177.192C185.414 177.192 184.95 177.091 184.534 176.888C184.118 176.685 183.76 176.397 183.462 176.024C183.174 175.651 182.95 175.197 182.79 174.664C182.64 174.131 182.566 173.533 182.566 172.872C182.566 172.211 182.64 171.613 182.79 171.08C182.95 170.547 183.174 170.093 183.462 169.72C183.76 169.347 184.118 169.059 184.534 168.856C184.95 168.653 185.414 168.552 185.926 168.552C186.502 168.552 186.992 168.68 187.398 168.936C187.814 169.181 188.128 169.565 188.342 170.088H188.406V165.16H189.686V177H188.406V175.656ZM186.278 176.04C186.566 176.04 186.838 176.003 187.094 175.928C187.36 175.853 187.59 175.747 187.782 175.608C187.974 175.459 188.123 175.283 188.23 175.08C188.347 174.867 188.406 174.627 188.406 174.36V171.288C188.406 171.064 188.347 170.856 188.23 170.664C188.123 170.461 187.974 170.291 187.782 170.152C187.59 170.013 187.36 169.907 187.094 169.832C186.838 169.747 186.566 169.704 186.278 169.704C185.552 169.704 184.982 169.933 184.566 170.392C184.15 170.84 183.942 171.432 183.942 172.168V173.576C183.942 174.312 184.15 174.909 184.566 175.368C184.982 175.816 185.552 176.04 186.278 176.04ZM193.047 166.808C192.77 166.808 192.567 166.744 192.439 166.616C192.322 166.477 192.263 166.301 192.263 166.088V165.88C192.263 165.667 192.322 165.496 192.439 165.368C192.567 165.229 192.77 165.16 193.047 165.16C193.324 165.16 193.522 165.229 193.639 165.368C193.767 165.496 193.831 165.667 193.831 165.88V166.088C193.831 166.301 193.767 166.477 193.639 166.616C193.522 166.744 193.324 166.808 193.047 166.808ZM192.407 168.744H193.687V177H192.407V168.744ZM201.495 175.656H201.431C201.346 175.848 201.239 176.04 201.111 176.232C200.994 176.413 200.844 176.579 200.663 176.728C200.482 176.867 200.263 176.979 200.007 177.064C199.751 177.149 199.452 177.192 199.111 177.192C198.258 177.192 197.58 176.92 197.079 176.376C196.578 175.821 196.327 175.043 196.327 174.04V168.744H197.607V173.816C197.607 175.299 198.236 176.04 199.495 176.04C199.751 176.04 199.996 176.008 200.231 175.944C200.476 175.88 200.69 175.784 200.871 175.656C201.063 175.528 201.212 175.368 201.319 175.176C201.436 174.973 201.495 174.733 201.495 174.456V168.744H202.775V177H201.495V175.656ZM205.501 177V168.744H206.781V170.088H206.845C206.941 169.875 207.047 169.677 207.165 169.496C207.293 169.304 207.442 169.139 207.613 169C207.794 168.861 208.002 168.755 208.237 168.68C208.471 168.595 208.749 168.552 209.069 168.552C209.613 168.552 210.114 168.685 210.573 168.952C211.031 169.208 211.373 169.635 211.597 170.232H211.629C211.778 169.784 212.055 169.395 212.461 169.064C212.877 168.723 213.437 168.552 214.141 168.552C214.983 168.552 215.639 168.829 216.109 169.384C216.589 169.928 216.829 170.701 216.829 171.704V177H215.549V171.928C215.549 171.192 215.405 170.637 215.117 170.264C214.829 169.891 214.37 169.704 213.741 169.704C213.485 169.704 213.239 169.736 213.005 169.8C212.781 169.864 212.578 169.96 212.397 170.088C212.215 170.216 212.071 170.381 211.965 170.584C211.858 170.776 211.805 171.005 211.805 171.272V177H210.525V171.928C210.525 171.192 210.381 170.637 210.093 170.264C209.805 169.891 209.357 169.704 208.749 169.704C208.493 169.704 208.247 169.736 208.013 169.8C207.778 169.864 207.57 169.96 207.389 170.088C207.207 170.216 207.058 170.381 206.941 170.584C206.834 170.776 206.781 171.005 206.781 171.272V177H205.501Z" fill="#3B2F59"/>
<rect opacity="0.8" x="227" y="170" width="1000" height="1" fill="#C8C5DB"/>
</g>
<g clip-path="url(#clip2)">
<path d="M161.488 280V268.832H162.832V278.816H167.584V280H161.488ZM172.339 280.192C171.785 280.192 171.278 280.091 170.819 279.888C170.361 279.685 169.966 279.397 169.635 279.024C169.315 278.64 169.065 278.187 168.883 277.664C168.702 277.131 168.611 276.533 168.611 275.872C168.611 275.221 168.702 274.629 168.883 274.096C169.065 273.563 169.315 273.109 169.635 272.736C169.966 272.352 170.361 272.059 170.819 271.856C171.278 271.653 171.785 271.552 172.339 271.552C172.894 271.552 173.395 271.653 173.843 271.856C174.302 272.059 174.697 272.352 175.027 272.736C175.358 273.109 175.614 273.563 175.795 274.096C175.977 274.629 176.067 275.221 176.067 275.872C176.067 276.533 175.977 277.131 175.795 277.664C175.614 278.187 175.358 278.64 175.027 279.024C174.697 279.397 174.302 279.685 173.843 279.888C173.395 280.091 172.894 280.192 172.339 280.192ZM172.339 279.056C173.033 279.056 173.598 278.843 174.035 278.416C174.473 277.989 174.691 277.339 174.691 276.464V275.28C174.691 274.405 174.473 273.755 174.035 273.328C173.598 272.901 173.033 272.688 172.339 272.688C171.646 272.688 171.081 272.901 170.643 273.328C170.206 273.755 169.987 274.405 169.987 275.28V276.464C169.987 277.339 170.206 277.989 170.643 278.416C171.081 278.843 171.646 279.056 172.339 279.056ZM177.23 271.744H178.478L179.358 275.312L180.238 278.928H180.27L181.278 275.312L182.318 271.744H183.454L184.526 275.312L185.55 278.928H185.582L186.43 275.312L187.326 271.744H188.526L186.334 280H184.75L183.598 276.032L182.878 273.52H182.846L182.142 276.032L180.99 280H179.438L177.23 271.744Z" fill="#3B2F59"/>
<rect opacity="0.8" x="198" y="273" width="1000" height="1" fill="#C8C5DB"/>
</g>
<path d="M257.373 344.016V354H256.029V344.016H252.477V342.832H260.925V344.016H257.373ZM266.081 354.192C265.441 354.192 264.881 354.112 264.401 353.952C263.921 353.781 263.516 353.552 263.185 353.264C262.865 352.976 262.62 352.635 262.449 352.24C262.289 351.845 262.209 351.419 262.209 350.96C262.209 350.192 262.417 349.584 262.833 349.136C263.249 348.688 263.793 348.373 264.465 348.192V348.064C263.879 347.861 263.409 347.536 263.057 347.088C262.716 346.629 262.545 346.08 262.545 345.44C262.545 344.587 262.855 343.909 263.473 343.408C264.092 342.896 264.961 342.64 266.081 342.64C267.201 342.64 268.071 342.896 268.689 343.408C269.308 343.909 269.617 344.587 269.617 345.44C269.617 346.08 269.441 346.629 269.089 347.088C268.748 347.536 268.284 347.861 267.697 348.064V348.192C268.369 348.373 268.913 348.688 269.329 349.136C269.745 349.584 269.953 350.192 269.953 350.96C269.953 351.419 269.868 351.845 269.697 352.24C269.537 352.635 269.292 352.976 268.961 353.264C268.641 353.552 268.241 353.781 267.761 353.952C267.281 354.112 266.721 354.192 266.081 354.192ZM266.081 353.024C266.86 353.024 267.463 352.853 267.889 352.512C268.316 352.16 268.529 351.664 268.529 351.024V350.688C268.529 350.048 268.316 349.557 267.889 349.216C267.463 348.864 266.86 348.688 266.081 348.688C265.303 348.688 264.7 348.864 264.273 349.216C263.847 349.557 263.633 350.048 263.633 350.688V351.024C263.633 351.664 263.847 352.16 264.273 352.512C264.7 352.853 265.303 353.024 266.081 353.024ZM266.081 347.568C266.785 347.568 267.319 347.419 267.681 347.12C268.044 346.821 268.225 346.384 268.225 345.808V345.568C268.225 344.992 268.044 344.555 267.681 344.256C267.319 343.957 266.785 343.808 266.081 343.808C265.377 343.808 264.844 343.957 264.481 344.256C264.119 344.555 263.937 344.992 263.937 345.568V345.808C263.937 346.384 264.119 346.821 264.481 347.12C264.844 347.419 265.377 347.568 266.081 347.568Z" fill="#3B2F59"/>
<rect x="273" y="329" width="23" height="292" rx="3" transform="rotate(-180 273 329)" fill="#F74874"/>
<path d="M308.373 344.016V354H307.029V344.016H303.477V342.832H311.925V344.016H308.373ZM318.281 354V351.808H312.889V350.624L317.561 342.832H319.561V350.688H321.177V351.808H319.561V354H318.281ZM314.153 350.688H318.281V343.872H318.201L314.153 350.688Z" fill="#3B2F59"/>
<rect x="324" y="329" width="23" height="271" rx="3" transform="rotate(-180 324 329)" fill="#F74874"/>
<path d="M359.373 344.016V354H358.029V344.016H354.477V342.832H362.925V344.016H359.373ZM367.457 347.568C368.215 347.568 368.78 347.397 369.153 347.056C369.537 346.704 369.729 346.256 369.729 345.712V345.6C369.729 345.013 369.543 344.576 369.169 344.288C368.807 343.989 368.327 343.84 367.729 343.84C367.153 343.84 366.684 343.968 366.321 344.224C365.959 344.469 365.66 344.805 365.425 345.232L364.433 344.464C364.572 344.24 364.737 344.021 364.929 343.808C365.132 343.584 365.367 343.387 365.633 343.216C365.9 343.045 366.209 342.907 366.561 342.8C366.913 342.693 367.313 342.64 367.761 342.64C368.231 342.64 368.673 342.704 369.089 342.832C369.505 342.949 369.863 343.131 370.161 343.376C370.471 343.611 370.711 343.904 370.881 344.256C371.063 344.608 371.153 345.008 371.153 345.456C371.153 345.819 371.095 346.144 370.977 346.432C370.871 346.72 370.721 346.971 370.529 347.184C370.337 347.397 370.108 347.579 369.841 347.728C369.585 347.877 369.308 347.989 369.009 348.064V348.128C369.308 348.192 369.596 348.299 369.873 348.448C370.161 348.587 370.412 348.773 370.625 349.008C370.849 349.232 371.025 349.509 371.153 349.84C371.292 350.16 371.361 350.528 371.361 350.944C371.361 351.424 371.271 351.867 371.089 352.272C370.908 352.667 370.652 353.008 370.321 353.296C369.991 353.573 369.591 353.792 369.121 353.952C368.652 354.112 368.135 354.192 367.569 354.192C367.089 354.192 366.663 354.139 366.289 354.032C365.916 353.925 365.585 353.781 365.297 353.6C365.009 353.419 364.753 353.216 364.529 352.992C364.316 352.768 364.124 352.533 363.953 352.288L364.961 351.52C365.1 351.744 365.249 351.947 365.409 352.128C365.58 352.309 365.767 352.464 365.969 352.592C366.172 352.72 366.401 352.821 366.657 352.896C366.913 352.96 367.212 352.992 367.553 352.992C368.343 352.992 368.94 352.816 369.345 352.464C369.751 352.101 369.953 351.589 369.953 350.928V350.8C369.953 350.139 369.751 349.632 369.345 349.28C368.94 348.917 368.343 348.736 367.553 348.736H366.241V347.568H367.457Z" fill="#3B2F59"/>
<rect x="375" y="329" width="23" height="181" rx="3" transform="rotate(-180 375 329)" fill="#35D7E1"/>
<path d="M410.373 344.016V354H409.029V344.016H405.477V342.832H413.925V344.016H410.373ZM419.097 354.192C418.521 354.192 417.999 354.096 417.529 353.904C417.071 353.701 416.676 353.419 416.345 353.056C416.025 352.683 415.78 352.229 415.609 351.696C415.439 351.163 415.353 350.565 415.353 349.904C415.353 349.072 415.476 348.293 415.721 347.568C415.967 346.832 416.281 346.165 416.665 345.568C417.06 344.96 417.492 344.427 417.961 343.968C418.431 343.499 418.889 343.12 419.337 342.832H421.065C420.468 343.269 419.935 343.696 419.465 344.112C418.996 344.528 418.585 344.965 418.233 345.424C417.881 345.872 417.583 346.357 417.337 346.88C417.092 347.392 416.895 347.973 416.745 348.624L416.825 348.656C417.092 348.197 417.433 347.819 417.849 347.52C418.276 347.211 418.831 347.056 419.513 347.056C419.993 347.056 420.436 347.136 420.841 347.296C421.247 347.456 421.593 347.685 421.881 347.984C422.169 348.283 422.393 348.645 422.553 349.072C422.724 349.499 422.809 349.973 422.809 350.496C422.809 351.04 422.719 351.541 422.537 352C422.367 352.448 422.116 352.837 421.785 353.168C421.465 353.488 421.076 353.739 420.617 353.92C420.159 354.101 419.652 354.192 419.097 354.192ZM419.081 353.024C419.817 353.024 420.388 352.821 420.793 352.416C421.209 352.011 421.417 351.429 421.417 350.672V350.544C421.417 349.787 421.209 349.205 420.793 348.8C420.388 348.395 419.817 348.192 419.081 348.192C418.345 348.192 417.769 348.395 417.353 348.8C416.948 349.205 416.745 349.787 416.745 350.544V350.672C416.745 351.429 416.948 352.011 417.353 352.416C417.769 352.821 418.345 353.024 419.081 353.024Z" fill="#3B2F59"/>
<rect x="426" y="329" width="23" height="174" rx="3" transform="rotate(-180 426 329)" fill="#35D7E1"/>
<path d="M461.373 344.016V354H460.029V344.016H456.477V342.832H464.925V344.016H461.373ZM473.809 354H466.481V352.624L470.129 349.264C470.652 348.784 471.089 348.277 471.441 347.744C471.793 347.2 471.969 346.656 471.969 346.112V345.92C471.969 345.301 471.799 344.8 471.457 344.416C471.116 344.032 470.599 343.84 469.905 343.84C469.564 343.84 469.265 343.888 469.009 343.984C468.753 344.08 468.529 344.213 468.337 344.384C468.156 344.555 468.001 344.757 467.873 344.992C467.756 345.216 467.66 345.461 467.585 345.728L466.385 345.264C466.492 344.933 466.636 344.613 466.817 344.304C467.009 343.984 467.244 343.701 467.521 343.456C467.809 343.211 468.151 343.013 468.545 342.864C468.951 342.715 469.425 342.64 469.969 342.64C470.513 342.64 470.999 342.72 471.425 342.88C471.852 343.04 472.209 343.264 472.497 343.552C472.785 343.84 473.004 344.181 473.153 344.576C473.313 344.971 473.393 345.408 473.393 345.888C473.393 346.325 473.329 346.731 473.201 347.104C473.084 347.477 472.919 347.835 472.705 348.176C472.492 348.507 472.231 348.832 471.921 349.152C471.623 349.472 471.297 349.792 470.945 350.112L467.937 352.816H473.809V354Z" fill="#3B2F59"/>
<rect x="477.5" y="329" width="24" height="112" rx="3" transform="rotate(-180 477.5 329)" fill="#C8C5DB"/>
<path d="M512.373 344.016V354H511.029V344.016H507.477V342.832H515.925V344.016H512.373ZM519.081 354L523.353 343.984H518.585V346.064H517.385V342.832H524.713V344.016L520.521 354H519.081Z" fill="#3B2F59"/>
<rect x="528.5" y="329" width="24" height="97" rx="3" transform="rotate(-180 528.5 329)" fill="#C8C5DB"/>
<path d="M563.373 344.016V354H562.029V344.016H558.477V342.832H566.925V344.016H563.373ZM575.249 344.016H570.353L570.033 348.272H570.145C570.412 347.899 570.711 347.6 571.041 347.376C571.383 347.152 571.847 347.04 572.433 347.04C572.913 347.04 573.356 347.12 573.761 347.28C574.167 347.44 574.519 347.669 574.817 347.968C575.116 348.256 575.345 348.613 575.505 349.04C575.676 349.467 575.761 349.952 575.761 350.496C575.761 351.04 575.676 351.541 575.505 352C575.335 352.448 575.084 352.837 574.753 353.168C574.433 353.488 574.039 353.739 573.569 353.92C573.111 354.101 572.588 354.192 572.001 354.192C571.532 354.192 571.116 354.139 570.753 354.032C570.401 353.925 570.087 353.781 569.809 353.6C569.532 353.419 569.287 353.216 569.073 352.992C568.871 352.768 568.684 352.533 568.513 352.288L569.521 351.52C569.66 351.744 569.804 351.947 569.953 352.128C570.113 352.309 570.284 352.464 570.465 352.592C570.657 352.72 570.876 352.821 571.121 352.896C571.367 352.96 571.66 352.992 572.001 352.992C572.769 352.992 573.351 352.789 573.745 352.384C574.14 351.979 574.337 351.408 574.337 350.672V350.512C574.337 349.776 574.14 349.205 573.745 348.8C573.351 348.395 572.769 348.192 572.001 348.192C571.489 348.192 571.084 348.288 570.785 348.48C570.497 348.661 570.236 348.88 570.001 349.136L568.865 348.976L569.265 342.832H575.249V344.016Z" fill="#3B2F59"/>
<rect x="579.5" y="329" width="24" height="87" rx="3" transform="rotate(-180 579.5 329)" fill="#C8C5DB"/>
<path d="M614.373 344.016V354H613.029V344.016H609.477V342.832H617.925V344.016H614.373ZM619.689 354V352.816H622.809V343.824H622.697L619.881 346.448L619.097 345.6L622.057 342.832H624.153V352.816H627.033V354H619.689Z" fill="#3B2F59"/>
<rect x="630" y="329" width="23" height="72" rx="3" transform="rotate(-180 630 329)" fill="#C8C5DB"/>
<rect x="160" y="331" width="480" height="4" rx="2" fill="#C8C5DB"/>
<path d="M288.36 29L287.352 25.976H283.176L282.2 29H280.36L284.168 17.832H286.44L290.248 29H288.36ZM285.304 19.496H285.224L283.608 24.424H286.904L285.304 19.496ZM297.082 27.624H297.002C296.82 28.1147 296.522 28.4987 296.106 28.776C295.7 29.0533 295.22 29.192 294.666 29.192C293.61 29.192 292.794 28.8133 292.218 28.056C291.642 27.288 291.354 26.216 291.354 24.84C291.354 23.464 291.642 22.3973 292.218 21.64C292.794 20.872 293.61 20.488 294.666 20.488C295.22 20.488 295.7 20.6267 296.106 20.904C296.522 21.1707 296.82 21.5547 297.002 22.056H297.082V17.16H298.826V29H297.082V27.624ZM295.194 27.688C295.727 27.688 296.175 27.56 296.538 27.304C296.9 27.0373 297.082 26.6907 297.082 26.264V23.416C297.082 22.9893 296.9 22.648 296.538 22.392C296.175 22.1253 295.727 21.992 295.194 21.992C294.586 21.992 294.1 22.1893 293.738 22.584C293.375 22.968 293.194 23.48 293.194 24.12V25.56C293.194 26.2 293.375 26.7173 293.738 27.112C294.1 27.496 294.586 27.688 295.194 27.688ZM307.414 29C306.956 29 306.604 28.872 306.358 28.616C306.113 28.3493 305.964 28.0133 305.91 27.608H305.83C305.67 28.1307 305.377 28.5253 304.95 28.792C304.524 29.0587 304.006 29.192 303.398 29.192C302.534 29.192 301.868 28.968 301.398 28.52C300.94 28.072 300.71 27.4693 300.71 26.712C300.71 25.88 301.009 25.256 301.606 24.84C302.214 24.424 303.1 24.216 304.262 24.216H305.766V23.512C305.766 23 305.628 22.6053 305.35 22.328C305.073 22.0507 304.641 21.912 304.054 21.912C303.564 21.912 303.164 22.0187 302.854 22.232C302.545 22.4453 302.284 22.7173 302.07 23.048L301.03 22.104C301.308 21.6347 301.697 21.2507 302.198 20.952C302.7 20.6427 303.356 20.488 304.166 20.488C305.244 20.488 306.07 20.7387 306.646 21.24C307.222 21.7413 307.51 22.4613 307.51 23.4V27.576H308.39V29H307.414ZM303.894 27.864C304.438 27.864 304.886 27.7467 305.238 27.512C305.59 27.2667 305.766 26.9413 305.766 26.536V25.336H304.294C303.089 25.336 302.486 25.7093 302.486 26.456V26.744C302.486 27.1173 302.609 27.4 302.854 27.592C303.11 27.7733 303.457 27.864 303.894 27.864ZM310.1 20.68H311.844V22.056H311.924C312.105 21.5547 312.398 21.1707 312.804 20.904C313.22 20.6267 313.705 20.488 314.26 20.488C315.316 20.488 316.132 20.872 316.708 21.64C317.284 22.3973 317.572 23.464 317.572 24.84C317.572 26.216 317.284 27.288 316.708 28.056C316.132 28.8133 315.316 29.192 314.26 29.192C313.705 29.192 313.22 29.0533 312.804 28.776C312.398 28.4987 312.105 28.1147 311.924 27.624H311.844V32.2H310.1V20.68ZM313.732 27.688C314.34 27.688 314.825 27.496 315.188 27.112C315.55 26.7173 315.732 26.2 315.732 25.56V24.12C315.732 23.48 315.55 22.968 315.188 22.584C314.825 22.1893 314.34 21.992 313.732 21.992C313.198 21.992 312.75 22.1253 312.388 22.392C312.025 22.648 311.844 22.9893 311.844 23.416V26.264C311.844 26.6907 312.025 27.0373 312.388 27.304C312.75 27.56 313.198 27.688 313.732 27.688ZM321.779 29C321.171 29 320.712 28.8453 320.403 28.536C320.093 28.216 319.939 27.768 319.939 27.192V22.104H318.643V20.68H319.347C319.635 20.68 319.832 20.616 319.939 20.488C320.056 20.36 320.115 20.152 320.115 19.864V18.408H321.683V20.68H323.427V22.104H321.683V27.576H323.299V29H321.779ZM326.198 19.192C325.836 19.192 325.569 19.1067 325.398 18.936C325.238 18.7653 325.158 18.5467 325.158 18.28V18.008C325.158 17.7413 325.238 17.5227 325.398 17.352C325.569 17.1813 325.836 17.096 326.198 17.096C326.561 17.096 326.822 17.1813 326.982 17.352C327.142 17.5227 327.222 17.7413 327.222 18.008V18.28C327.222 18.5467 327.142 18.7653 326.982 18.936C326.822 19.1067 326.561 19.192 326.198 19.192ZM325.318 20.68H327.062V29H325.318V20.68ZM331.361 29L328.529 20.68H330.257L331.521 24.472L332.369 27.384H332.465L333.313 24.472L334.609 20.68H336.273L333.409 29H331.361ZM340.879 29.192C340.282 29.192 339.749 29.0907 339.279 28.888C338.81 28.6853 338.41 28.3973 338.079 28.024C337.749 27.64 337.493 27.1813 337.311 26.648C337.141 26.104 337.055 25.5013 337.055 24.84C337.055 24.1787 337.141 23.5813 337.311 23.048C337.493 22.504 337.749 22.0453 338.079 21.672C338.41 21.288 338.81 20.9947 339.279 20.792C339.749 20.5893 340.282 20.488 340.879 20.488C341.487 20.488 342.021 20.5947 342.479 20.808C342.949 21.0213 343.338 21.32 343.647 21.704C343.957 22.0773 344.186 22.5147 344.335 23.016C344.495 23.5173 344.575 24.056 344.575 24.632V25.288H338.863V25.56C338.863 26.2 339.05 26.728 339.423 27.144C339.807 27.5493 340.351 27.752 341.055 27.752C341.567 27.752 341.999 27.64 342.351 27.416C342.703 27.192 343.002 26.888 343.247 26.504L344.271 27.512C343.962 28.024 343.514 28.4347 342.927 28.744C342.341 29.0427 341.658 29.192 340.879 29.192ZM340.879 21.848C340.581 21.848 340.303 21.9013 340.047 22.008C339.802 22.1147 339.589 22.264 339.407 22.456C339.237 22.648 339.103 22.8773 339.007 23.144C338.911 23.4107 338.863 23.704 338.863 24.024V24.136H342.735V23.976C342.735 23.336 342.57 22.824 342.239 22.44C341.909 22.0453 341.455 21.848 340.879 21.848ZM353.759 29.192C352.82 29.192 352.02 29.0213 351.359 28.68C350.708 28.3387 350.148 27.88 349.679 27.304L350.927 26.136C351.322 26.616 351.754 26.9787 352.223 27.224C352.703 27.4693 353.247 27.592 353.855 27.592C354.57 27.592 355.108 27.432 355.471 27.112C355.834 26.792 356.015 26.36 356.015 25.816C356.015 25.3787 355.887 25.032 355.631 24.776C355.375 24.52 354.922 24.328 354.271 24.2L353.279 24.024C352.191 23.8213 351.375 23.464 350.831 22.952C350.287 22.44 350.015 21.736 350.015 20.84C350.015 20.3493 350.106 19.9067 350.287 19.512C350.479 19.1067 350.74 18.7707 351.071 18.504C351.412 18.2267 351.823 18.0133 352.303 17.864C352.783 17.7147 353.322 17.64 353.919 17.64C354.762 17.64 355.492 17.7893 356.111 18.088C356.73 18.376 357.258 18.7973 357.695 19.352L356.431 20.472C356.143 20.0987 355.791 19.8 355.375 19.576C354.959 19.352 354.442 19.24 353.823 19.24C353.183 19.24 352.687 19.368 352.335 19.624C351.983 19.88 351.807 20.2533 351.807 20.744C351.807 21.2133 351.951 21.5653 352.239 21.8C352.527 22.024 352.975 22.1947 353.583 22.312L354.575 22.52C355.695 22.7333 356.511 23.096 357.023 23.608C357.546 24.12 357.807 24.824 357.807 25.72C357.807 26.2427 357.716 26.7173 357.535 27.144C357.354 27.5707 357.087 27.9387 356.735 28.248C356.394 28.5467 355.972 28.7813 355.471 28.952C354.97 29.112 354.399 29.192 353.759 29.192ZM364.89 27.624H364.826C364.751 27.8267 364.65 28.024 364.522 28.216C364.404 28.408 364.25 28.5787 364.058 28.728C363.876 28.8667 363.652 28.9787 363.386 29.064C363.13 29.1493 362.831 29.192 362.49 29.192C361.626 29.192 360.954 28.9147 360.474 28.36C360.004 27.8053 359.77 27.0107 359.77 25.976V20.68H361.514V25.752C361.514 27.0427 362.047 27.688 363.114 27.688C363.338 27.688 363.556 27.6613 363.77 27.608C363.983 27.544 364.17 27.4533 364.33 27.336C364.5 27.2187 364.634 27.0693 364.73 26.888C364.836 26.7067 364.89 26.4933 364.89 26.248V20.68H366.634V29H364.89V27.624ZM369.131 17.16H370.875V22.056H370.955C371.136 21.5547 371.429 21.1707 371.835 20.904C372.251 20.6267 372.736 20.488 373.291 20.488C374.347 20.488 375.163 20.872 375.739 21.64C376.315 22.3973 376.603 23.464 376.603 24.84C376.603 26.216 376.315 27.288 375.739 28.056C375.163 28.8133 374.347 29.192 373.291 29.192C372.736 29.192 372.251 29.0533 371.835 28.776C371.429 28.4987 371.136 28.1147 370.955 27.624H370.875V29H369.131V17.16ZM372.763 27.688C373.371 27.688 373.856 27.496 374.219 27.112C374.581 26.7173 374.763 26.2 374.763 25.56V24.12C374.763 23.48 374.581 22.968 374.219 22.584C373.856 22.1893 373.371 21.992 372.763 21.992C372.229 21.992 371.781 22.1253 371.419 22.392C371.056 22.648 370.875 22.9893 370.875 23.416V26.264C370.875 26.6907 371.056 27.0373 371.419 27.304C371.781 27.56 372.229 27.688 372.763 27.688ZM381.24 29.192C380.45 29.192 379.789 29.0533 379.256 28.776C378.722 28.4987 378.258 28.1147 377.864 27.624L378.984 26.6C379.293 26.9733 379.634 27.2667 380.008 27.48C380.392 27.6827 380.834 27.784 381.336 27.784C381.848 27.784 382.226 27.688 382.472 27.496C382.728 27.2933 382.856 27.016 382.856 26.664C382.856 26.3973 382.765 26.1733 382.584 25.992C382.413 25.8 382.109 25.6773 381.672 25.624L380.904 25.528C380.05 25.4213 379.378 25.176 378.888 24.792C378.408 24.3973 378.168 23.816 378.168 23.048C378.168 22.6427 378.242 22.2853 378.392 21.976C378.541 21.656 378.749 21.3893 379.016 21.176C379.293 20.952 379.618 20.7813 379.992 20.664C380.376 20.5467 380.797 20.488 381.256 20.488C382.002 20.488 382.61 20.6053 383.08 20.84C383.56 21.0747 383.986 21.4 384.36 21.816L383.288 22.84C383.074 22.584 382.792 22.3653 382.44 22.184C382.098 21.992 381.704 21.896 381.256 21.896C380.776 21.896 380.418 21.992 380.184 22.184C379.96 22.376 379.848 22.6267 379.848 22.936C379.848 23.256 379.949 23.496 380.152 23.656C380.354 23.816 380.68 23.9333 381.128 24.008L381.896 24.104C382.813 24.2427 383.48 24.5147 383.896 24.92C384.322 25.3147 384.536 25.848 384.536 26.52C384.536 26.9253 384.456 27.2933 384.296 27.624C384.146 27.944 383.928 28.2213 383.64 28.456C383.352 28.6907 383.005 28.872 382.6 29C382.194 29.128 381.741 29.192 381.24 29.192ZM389.77 29.192C389.172 29.192 388.639 29.0907 388.17 28.888C387.7 28.6853 387.3 28.3973 386.97 28.024C386.639 27.64 386.383 27.1813 386.202 26.648C386.031 26.104 385.946 25.5013 385.946 24.84C385.946 24.1787 386.031 23.5813 386.202 23.048C386.383 22.504 386.639 22.0453 386.97 21.672C387.3 21.288 387.7 20.9947 388.17 20.792C388.639 20.5893 389.172 20.488 389.77 20.488C390.378 20.488 390.911 20.5947 391.37 20.808C391.839 21.0213 392.228 21.32 392.538 21.704C392.847 22.0773 393.076 22.5147 393.226 23.016C393.386 23.5173 393.466 24.056 393.466 24.632V25.288H387.754V25.56C387.754 26.2 387.94 26.728 388.314 27.144C388.698 27.5493 389.242 27.752 389.946 27.752C390.458 27.752 390.89 27.64 391.242 27.416C391.594 27.192 391.892 26.888 392.138 26.504L393.162 27.512C392.852 28.024 392.404 28.4347 391.818 28.744C391.231 29.0427 390.548 29.192 389.77 29.192ZM389.77 21.848C389.471 21.848 389.194 21.9013 388.938 22.008C388.692 22.1147 388.479 22.264 388.298 22.456C388.127 22.648 387.994 22.8773 387.898 23.144C387.802 23.4107 387.754 23.704 387.754 24.024V24.136H391.626V23.976C391.626 23.336 391.46 22.824 391.13 22.44C390.799 22.0453 390.346 21.848 389.77 21.848ZM397.7 29C397.092 29 396.634 28.8453 396.324 28.536C396.015 28.216 395.86 27.768 395.86 27.192V22.104H394.564V20.68H395.268C395.556 20.68 395.754 20.616 395.86 20.488C395.978 20.36 396.036 20.152 396.036 19.864V18.408H397.604V20.68H399.348V22.104H397.604V27.576H399.22V29H397.7Z" fill="#3B2F59"/>
<defs>
<clipPath id="clip0">
<rect width="480" height="22" fill="white" transform="translate(160 56)"/>
</clipPath>
<clipPath id="clip1">
<rect width="480" height="22" fill="white" transform="translate(160 159)"/>
</clipPath>
<clipPath id="clip2">
<rect width="480" height="22" fill="white" transform="translate(160 262)"/>
</clipPath>
</defs>
</svg>
