<svg width="800" height="370" viewBox="0 0 800 370" fill="none" xmlns="http://www.w3.org/2000/svg">
<g clip-path="url(#clip0)">
<path d="M168.48 68.944H162.832V74H161.488V62.832H162.832V67.76H168.48V62.832H169.824V74H168.48V68.944ZM173.312 63.808C173.035 63.808 172.833 63.744 172.705 63.616C172.587 63.4773 172.529 63.3013 172.529 63.088V62.88C172.529 62.6667 172.587 62.496 172.705 62.368C172.833 62.2293 173.035 62.16 173.312 62.16C173.59 62.16 173.787 62.2293 173.905 62.368C174.033 62.496 174.097 62.6667 174.097 62.88V63.088C174.097 63.3013 174.033 63.4773 173.905 63.616C173.787 63.744 173.59 63.808 173.312 63.808ZM172.673 65.744H173.953V74H172.673V65.744ZM183.633 74.912C183.633 75.7653 183.297 76.3893 182.625 76.784C181.963 77.1893 180.966 77.392 179.633 77.392C178.342 77.392 177.414 77.216 176.849 76.864C176.283 76.512 176.001 76.0107 176.001 75.36C176.001 74.912 176.118 74.56 176.353 74.304C176.587 74.0587 176.907 73.8773 177.312 73.76V73.584C176.822 73.3493 176.577 72.9653 176.577 72.432C176.577 72.016 176.71 71.7013 176.977 71.488C177.243 71.264 177.585 71.0987 178.001 70.992V70.928C177.51 70.6933 177.126 70.3573 176.849 69.92C176.582 69.4827 176.449 68.976 176.449 68.4C176.449 67.984 176.523 67.6 176.673 67.248C176.822 66.896 177.03 66.5973 177.297 66.352C177.574 66.096 177.899 65.8987 178.273 65.76C178.657 65.6213 179.083 65.552 179.553 65.552C180.139 65.552 180.662 65.6587 181.121 65.872V65.728C181.121 65.408 181.195 65.1467 181.345 64.944C181.494 64.7307 181.739 64.624 182.081 64.624H183.312V65.744H181.745V66.272C182.043 66.528 182.273 66.8373 182.433 67.2C182.603 67.552 182.689 67.952 182.689 68.4C182.689 68.816 182.614 69.2 182.465 69.552C182.315 69.904 182.102 70.208 181.825 70.464C181.558 70.7093 181.233 70.9013 180.849 71.04C180.465 71.1787 180.038 71.248 179.569 71.248C179.302 71.248 179.035 71.2213 178.769 71.168C178.491 71.2427 178.241 71.3547 178.017 71.504C177.793 71.6427 177.681 71.84 177.681 72.096C177.681 72.3413 177.798 72.5067 178.033 72.592C178.267 72.6773 178.571 72.72 178.945 72.72H180.705C181.729 72.72 182.47 72.9173 182.929 73.312C183.398 73.696 183.633 74.2293 183.633 74.912ZM182.433 75.008C182.433 74.6773 182.305 74.4107 182.049 74.208C181.803 74.016 181.361 73.92 180.721 73.92H177.969C177.457 74.1547 177.201 74.528 177.201 75.04C177.201 75.4027 177.334 75.712 177.601 75.968C177.878 76.224 178.342 76.352 178.993 76.352H180.177C180.891 76.352 181.446 76.24 181.841 76.016C182.235 75.792 182.433 75.456 182.433 75.008ZM179.569 70.224C180.113 70.224 180.545 70.096 180.865 69.84C181.185 69.5733 181.345 69.168 181.345 68.624V68.176C181.345 67.632 181.185 67.232 180.865 66.976C180.545 66.7093 180.113 66.576 179.569 66.576C179.025 66.576 178.593 66.7093 178.273 66.976C177.953 67.232 177.793 67.632 177.793 68.176V68.624C177.793 69.168 177.953 69.5733 178.273 69.84C178.593 70.096 179.025 70.224 179.569 70.224ZM185.126 62.16H186.406V67.088H186.47C186.672 66.6187 186.955 66.2453 187.318 65.968C187.691 65.6907 188.187 65.552 188.806 65.552C189.659 65.552 190.331 65.8293 190.822 66.384C191.323 66.928 191.574 67.7013 191.574 68.704V74H190.294V68.928C190.294 67.4453 189.67 66.704 188.422 66.704C188.166 66.704 187.915 66.736 187.67 66.8C187.435 66.864 187.222 66.96 187.03 67.088C186.838 67.216 186.683 67.3813 186.566 67.584C186.459 67.776 186.406 68.0053 186.406 68.272V74H185.126V62.16Z" fill="#3B2F59"/>
<rect opacity="0.8" x="201" y="67" width="1000" height="1" fill="#C8C5DB"/>
</g>
<g clip-path="url(#clip1)">
<path d="M170.192 167.592H170.112L169.168 169.464L166.496 174.328L163.824 169.464L162.88 167.592H162.8V177H161.488V165.832H163.28L166.48 171.848H166.56L169.776 165.832H171.504V177H170.192V167.592ZM177.448 177.192C176.883 177.192 176.371 177.091 175.912 176.888C175.464 176.685 175.075 176.397 174.744 176.024C174.424 175.64 174.174 175.187 173.992 174.664C173.822 174.131 173.736 173.533 173.736 172.872C173.736 172.221 173.822 171.629 173.992 171.096C174.174 170.563 174.424 170.109 174.744 169.736C175.075 169.352 175.464 169.059 175.912 168.856C176.371 168.653 176.883 168.552 177.448 168.552C178.003 168.552 178.499 168.653 178.936 168.856C179.374 169.059 179.747 169.341 180.056 169.704C180.366 170.056 180.6 170.477 180.76 170.968C180.931 171.459 181.016 171.997 181.016 172.584V173.192H175.08V173.576C175.08 173.928 175.134 174.259 175.24 174.568C175.358 174.867 175.518 175.128 175.72 175.352C175.934 175.576 176.19 175.752 176.488 175.88C176.798 176.008 177.144 176.072 177.528 176.072C178.051 176.072 178.504 175.949 178.888 175.704C179.283 175.459 179.587 175.107 179.8 174.648L180.712 175.304C180.446 175.869 180.03 176.328 179.464 176.68C178.899 177.021 178.227 177.192 177.448 177.192ZM177.448 169.624C177.096 169.624 176.776 169.688 176.488 169.816C176.2 169.933 175.95 170.104 175.736 170.328C175.534 170.552 175.374 170.819 175.256 171.128C175.139 171.427 175.08 171.757 175.08 172.12V172.232H179.64V172.056C179.64 171.32 179.438 170.733 179.032 170.296C178.638 169.848 178.11 169.624 177.448 169.624ZM188.406 175.656H188.342C187.84 176.68 187.035 177.192 185.926 177.192C185.414 177.192 184.95 177.091 184.534 176.888C184.118 176.685 183.76 176.397 183.462 176.024C183.174 175.651 182.95 175.197 182.79 174.664C182.64 174.131 182.566 173.533 182.566 172.872C182.566 172.211 182.64 171.613 182.79 171.08C182.95 170.547 183.174 170.093 183.462 169.72C183.76 169.347 184.118 169.059 184.534 168.856C184.95 168.653 185.414 168.552 185.926 168.552C186.502 168.552 186.992 168.68 187.398 168.936C187.814 169.181 188.128 169.565 188.342 170.088H188.406V165.16H189.686V177H188.406V175.656ZM186.278 176.04C186.566 176.04 186.838 176.003 187.094 175.928C187.36 175.853 187.59 175.747 187.782 175.608C187.974 175.459 188.123 175.283 188.23 175.08C188.347 174.867 188.406 174.627 188.406 174.36V171.288C188.406 171.064 188.347 170.856 188.23 170.664C188.123 170.461 187.974 170.291 187.782 170.152C187.59 170.013 187.36 169.907 187.094 169.832C186.838 169.747 186.566 169.704 186.278 169.704C185.552 169.704 184.982 169.933 184.566 170.392C184.15 170.84 183.942 171.432 183.942 172.168V173.576C183.942 174.312 184.15 174.909 184.566 175.368C184.982 175.816 185.552 176.04 186.278 176.04ZM193.047 166.808C192.77 166.808 192.567 166.744 192.439 166.616C192.322 166.477 192.263 166.301 192.263 166.088V165.88C192.263 165.667 192.322 165.496 192.439 165.368C192.567 165.229 192.77 165.16 193.047 165.16C193.324 165.16 193.522 165.229 193.639 165.368C193.767 165.496 193.831 165.667 193.831 165.88V166.088C193.831 166.301 193.767 166.477 193.639 166.616C193.522 166.744 193.324 166.808 193.047 166.808ZM192.407 168.744H193.687V177H192.407V168.744ZM201.495 175.656H201.431C201.346 175.848 201.239 176.04 201.111 176.232C200.994 176.413 200.844 176.579 200.663 176.728C200.482 176.867 200.263 176.979 200.007 177.064C199.751 177.149 199.452 177.192 199.111 177.192C198.258 177.192 197.58 176.92 197.079 176.376C196.578 175.821 196.327 175.043 196.327 174.04V168.744H197.607V173.816C197.607 175.299 198.236 176.04 199.495 176.04C199.751 176.04 199.996 176.008 200.231 175.944C200.476 175.88 200.69 175.784 200.871 175.656C201.063 175.528 201.212 175.368 201.319 175.176C201.436 174.973 201.495 174.733 201.495 174.456V168.744H202.775V177H201.495V175.656ZM205.501 177V168.744H206.781V170.088H206.845C206.941 169.875 207.047 169.677 207.165 169.496C207.293 169.304 207.442 169.139 207.613 169C207.794 168.861 208.002 168.755 208.237 168.68C208.471 168.595 208.749 168.552 209.069 168.552C209.613 168.552 210.114 168.685 210.573 168.952C211.031 169.208 211.373 169.635 211.597 170.232H211.629C211.778 169.784 212.055 169.395 212.461 169.064C212.877 168.723 213.437 168.552 214.141 168.552C214.983 168.552 215.639 168.829 216.109 169.384C216.589 169.928 216.829 170.701 216.829 171.704V177H215.549V171.928C215.549 171.192 215.405 170.637 215.117 170.264C214.829 169.891 214.37 169.704 213.741 169.704C213.485 169.704 213.239 169.736 213.005 169.8C212.781 169.864 212.578 169.96 212.397 170.088C212.215 170.216 212.071 170.381 211.965 170.584C211.858 170.776 211.805 171.005 211.805 171.272V177H210.525V171.928C210.525 171.192 210.381 170.637 210.093 170.264C209.805 169.891 209.357 169.704 208.749 169.704C208.493 169.704 208.247 169.736 208.013 169.8C207.778 169.864 207.57 169.96 207.389 170.088C207.207 170.216 207.058 170.381 206.941 170.584C206.834 170.776 206.781 171.005 206.781 171.272V177H205.501Z" fill="#3B2F59"/>
<rect opacity="0.8" x="227" y="170" width="1000" height="1" fill="#C8C5DB"/>
</g>
<g clip-path="url(#clip2)">
<path d="M161.488 280V268.832H162.832V278.816H167.584V280H161.488ZM172.339 280.192C171.785 280.192 171.278 280.091 170.819 279.888C170.361 279.685 169.966 279.397 169.635 279.024C169.315 278.64 169.065 278.187 168.883 277.664C168.702 277.131 168.611 276.533 168.611 275.872C168.611 275.221 168.702 274.629 168.883 274.096C169.065 273.563 169.315 273.109 169.635 272.736C169.966 272.352 170.361 272.059 170.819 271.856C171.278 271.653 171.785 271.552 172.339 271.552C172.894 271.552 173.395 271.653 173.843 271.856C174.302 272.059 174.697 272.352 175.027 272.736C175.358 273.109 175.614 273.563 175.795 274.096C175.977 274.629 176.067 275.221 176.067 275.872C176.067 276.533 175.977 277.131 175.795 277.664C175.614 278.187 175.358 278.64 175.027 279.024C174.697 279.397 174.302 279.685 173.843 279.888C173.395 280.091 172.894 280.192 172.339 280.192ZM172.339 279.056C173.033 279.056 173.598 278.843 174.035 278.416C174.473 277.989 174.691 277.339 174.691 276.464V275.28C174.691 274.405 174.473 273.755 174.035 273.328C173.598 272.901 173.033 272.688 172.339 272.688C171.646 272.688 171.081 272.901 170.643 273.328C170.206 273.755 169.987 274.405 169.987 275.28V276.464C169.987 277.339 170.206 277.989 170.643 278.416C171.081 278.843 171.646 279.056 172.339 279.056ZM177.23 271.744H178.478L179.358 275.312L180.238 278.928H180.27L181.278 275.312L182.318 271.744H183.454L184.526 275.312L185.55 278.928H185.582L186.43 275.312L187.326 271.744H188.526L186.334 280H184.75L183.598 276.032L182.878 273.52H182.846L182.142 276.032L180.99 280H179.438L177.23 271.744Z" fill="#3B2F59"/>
<rect opacity="0.8" x="198" y="273" width="1000" height="1" fill="#C8C5DB"/>
</g>
<g clip-path="url(#clip3)">
<path d="M257.373 344.016V354H256.029V344.016H252.477V342.832H260.925V344.016H257.373ZM262.689 354V352.816H265.809V343.824H265.697L262.881 346.448L262.097 345.6L265.057 342.832H267.153V352.816H270.033V354H262.689Z" fill="#3B2F59"/>
<rect x="273" y="329" width="23" height="72" rx="3" transform="rotate(-180 273 329)" fill="#C8C5DB"/>
<path d="M308.373 344.016V354H307.029V344.016H303.477V342.832H311.925V344.016H308.373ZM320.809 354H313.481V352.624L317.129 349.264C317.652 348.784 318.089 348.277 318.441 347.744C318.793 347.2 318.969 346.656 318.969 346.112V345.92C318.969 345.301 318.799 344.8 318.457 344.416C318.116 344.032 317.599 343.84 316.905 343.84C316.564 343.84 316.265 343.888 316.009 343.984C315.753 344.08 315.529 344.213 315.337 344.384C315.156 344.555 315.001 344.757 314.873 344.992C314.756 345.216 314.66 345.461 314.585 345.728L313.385 345.264C313.492 344.933 313.636 344.613 313.817 344.304C314.009 343.984 314.244 343.701 314.521 343.456C314.809 343.211 315.151 343.013 315.545 342.864C315.951 342.715 316.425 342.64 316.969 342.64C317.513 342.64 317.999 342.72 318.425 342.88C318.852 343.04 319.209 343.264 319.497 343.552C319.785 343.84 320.004 344.181 320.153 344.576C320.313 344.971 320.393 345.408 320.393 345.888C320.393 346.325 320.329 346.731 320.201 347.104C320.084 347.477 319.919 347.835 319.705 348.176C319.492 348.507 319.231 348.832 318.921 349.152C318.623 349.472 318.297 349.792 317.945 350.112L314.937 352.816H320.809V354Z" fill="#3B2F59"/>
<rect x="324.5" y="329" width="24" height="112" rx="3" transform="rotate(-180 324.5 329)" fill="#C8C5DB"/>
<path d="M359.373 344.016V354H358.029V344.016H354.477V342.832H362.925V344.016H359.373ZM367.457 347.568C368.215 347.568 368.78 347.397 369.153 347.056C369.537 346.704 369.729 346.256 369.729 345.712V345.6C369.729 345.013 369.543 344.576 369.169 344.288C368.807 343.989 368.327 343.84 367.729 343.84C367.153 343.84 366.684 343.968 366.321 344.224C365.959 344.469 365.66 344.805 365.425 345.232L364.433 344.464C364.572 344.24 364.737 344.021 364.929 343.808C365.132 343.584 365.367 343.387 365.633 343.216C365.9 343.045 366.209 342.907 366.561 342.8C366.913 342.693 367.313 342.64 367.761 342.64C368.231 342.64 368.673 342.704 369.089 342.832C369.505 342.949 369.863 343.131 370.161 343.376C370.471 343.611 370.711 343.904 370.881 344.256C371.063 344.608 371.153 345.008 371.153 345.456C371.153 345.819 371.095 346.144 370.977 346.432C370.871 346.72 370.721 346.971 370.529 347.184C370.337 347.397 370.108 347.579 369.841 347.728C369.585 347.877 369.308 347.989 369.009 348.064V348.128C369.308 348.192 369.596 348.299 369.873 348.448C370.161 348.587 370.412 348.773 370.625 349.008C370.849 349.232 371.025 349.509 371.153 349.84C371.292 350.16 371.361 350.528 371.361 350.944C371.361 351.424 371.271 351.867 371.089 352.272C370.908 352.667 370.652 353.008 370.321 353.296C369.991 353.573 369.591 353.792 369.121 353.952C368.652 354.112 368.135 354.192 367.569 354.192C367.089 354.192 366.663 354.139 366.289 354.032C365.916 353.925 365.585 353.781 365.297 353.6C365.009 353.419 364.753 353.216 364.529 352.992C364.316 352.768 364.124 352.533 363.953 352.288L364.961 351.52C365.1 351.744 365.249 351.947 365.409 352.128C365.58 352.309 365.767 352.464 365.969 352.592C366.172 352.72 366.401 352.821 366.657 352.896C366.913 352.96 367.212 352.992 367.553 352.992C368.343 352.992 368.94 352.816 369.345 352.464C369.751 352.101 369.953 351.589 369.953 350.928V350.8C369.953 350.139 369.751 349.632 369.345 349.28C368.94 348.917 368.343 348.736 367.553 348.736H366.241V347.568H367.457Z" fill="#3B2F59"/>
<rect x="375" y="329" width="23" height="181" rx="3" transform="rotate(-180 375 329)" fill="#35D7E1"/>
<g clip-path="url(#clip4)">
<path d="M410.373 344.016V354H409.029V344.016H405.477V342.832H413.925V344.016H410.373ZM420.281 354V351.808H414.889V350.624L419.561 342.832H421.561V350.688H423.177V351.808H421.561V354H420.281ZM416.153 350.688H420.281V343.872H420.201L416.153 350.688Z" fill="#3B2F59"/>
<rect x="426" y="329" width="23" height="271" rx="3" transform="rotate(-180 426 329)" fill="#F74874"/>
</g>
<path d="M461.373 344.016V354H460.029V344.016H456.477V342.832H464.925V344.016H461.373ZM473.249 344.016H468.353L468.033 348.272H468.145C468.412 347.899 468.711 347.6 469.041 347.376C469.383 347.152 469.847 347.04 470.433 347.04C470.913 347.04 471.356 347.12 471.761 347.28C472.167 347.44 472.519 347.669 472.817 347.968C473.116 348.256 473.345 348.613 473.505 349.04C473.676 349.467 473.761 349.952 473.761 350.496C473.761 351.04 473.676 351.541 473.505 352C473.335 352.448 473.084 352.837 472.753 353.168C472.433 353.488 472.039 353.739 471.569 353.92C471.111 354.101 470.588 354.192 470.001 354.192C469.532 354.192 469.116 354.139 468.753 354.032C468.401 353.925 468.087 353.781 467.809 353.6C467.532 353.419 467.287 353.216 467.073 352.992C466.871 352.768 466.684 352.533 466.513 352.288L467.521 351.52C467.66 351.744 467.804 351.947 467.953 352.128C468.113 352.309 468.284 352.464 468.465 352.592C468.657 352.72 468.876 352.821 469.121 352.896C469.367 352.96 469.66 352.992 470.001 352.992C470.769 352.992 471.351 352.789 471.745 352.384C472.14 351.979 472.337 351.408 472.337 350.672V350.512C472.337 349.776 472.14 349.205 471.745 348.8C471.351 348.395 470.769 348.192 470.001 348.192C469.489 348.192 469.084 348.288 468.785 348.48C468.497 348.661 468.236 348.88 468.001 349.136L466.865 348.976L467.265 342.832H473.249V344.016Z" fill="#3B2F59"/>
<rect x="477.5" y="329" width="24" height="87" rx="3" transform="rotate(-180 477.5 329)" fill="#C8C5DB"/>
<g clip-path="url(#clip5)">
<path d="M512.373 344.016V354H511.029V344.016H507.477V342.832H515.925V344.016H512.373ZM521.097 354.192C520.521 354.192 519.999 354.096 519.529 353.904C519.071 353.701 518.676 353.419 518.345 353.056C518.025 352.683 517.78 352.229 517.609 351.696C517.439 351.163 517.353 350.565 517.353 349.904C517.353 349.072 517.476 348.293 517.721 347.568C517.967 346.832 518.281 346.165 518.665 345.568C519.06 344.96 519.492 344.427 519.961 343.968C520.431 343.499 520.889 343.12 521.337 342.832H523.065C522.468 343.269 521.935 343.696 521.465 344.112C520.996 344.528 520.585 344.965 520.233 345.424C519.881 345.872 519.583 346.357 519.337 346.88C519.092 347.392 518.895 347.973 518.745 348.624L518.825 348.656C519.092 348.197 519.433 347.819 519.849 347.52C520.276 347.211 520.831 347.056 521.513 347.056C521.993 347.056 522.436 347.136 522.841 347.296C523.247 347.456 523.593 347.685 523.881 347.984C524.169 348.283 524.393 348.645 524.553 349.072C524.724 349.499 524.809 349.973 524.809 350.496C524.809 351.04 524.719 351.541 524.537 352C524.367 352.448 524.116 352.837 523.785 353.168C523.465 353.488 523.076 353.739 522.617 353.92C522.159 354.101 521.652 354.192 521.097 354.192ZM521.081 353.024C521.817 353.024 522.388 352.821 522.793 352.416C523.209 352.011 523.417 351.429 523.417 350.672V350.544C523.417 349.787 523.209 349.205 522.793 348.8C522.388 348.395 521.817 348.192 521.081 348.192C520.345 348.192 519.769 348.395 519.353 348.8C518.948 349.205 518.745 349.787 518.745 350.544V350.672C518.745 351.429 518.948 352.011 519.353 352.416C519.769 352.821 520.345 353.024 521.081 353.024Z" fill="#3B2F59"/>
<rect x="528" y="329" width="23" height="174" rx="3" transform="rotate(-180 528 329)" fill="#35D7E1"/>
</g>
<path d="M563.373 344.016V354H562.029V344.016H558.477V342.832H566.925V344.016H563.373ZM570.081 354L574.353 343.984H569.585V346.064H568.385V342.832H575.713V344.016L571.521 354H570.081Z" fill="#3B2F59"/>
<rect x="579.5" y="329" width="24" height="97" rx="3" transform="rotate(-180 579.5 329)" fill="#C8C5DB"/>
<path d="M614.373 344.016V354H613.029V344.016H609.477V342.832H617.925V344.016H614.373ZM623.081 354.192C622.441 354.192 621.881 354.112 621.401 353.952C620.921 353.781 620.516 353.552 620.185 353.264C619.865 352.976 619.62 352.635 619.449 352.24C619.289 351.845 619.209 351.419 619.209 350.96C619.209 350.192 619.417 349.584 619.833 349.136C620.249 348.688 620.793 348.373 621.465 348.192V348.064C620.879 347.861 620.409 347.536 620.057 347.088C619.716 346.629 619.545 346.08 619.545 345.44C619.545 344.587 619.855 343.909 620.473 343.408C621.092 342.896 621.961 342.64 623.081 342.64C624.201 342.64 625.071 342.896 625.689 343.408C626.308 343.909 626.617 344.587 626.617 345.44C626.617 346.08 626.441 346.629 626.089 347.088C625.748 347.536 625.284 347.861 624.697 348.064V348.192C625.369 348.373 625.913 348.688 626.329 349.136C626.745 349.584 626.953 350.192 626.953 350.96C626.953 351.419 626.868 351.845 626.697 352.24C626.537 352.635 626.292 352.976 625.961 353.264C625.641 353.552 625.241 353.781 624.761 353.952C624.281 354.112 623.721 354.192 623.081 354.192ZM623.081 353.024C623.86 353.024 624.463 352.853 624.889 352.512C625.316 352.16 625.529 351.664 625.529 351.024V350.688C625.529 350.048 625.316 349.557 624.889 349.216C624.463 348.864 623.86 348.688 623.081 348.688C622.303 348.688 621.7 348.864 621.273 349.216C620.847 349.557 620.633 350.048 620.633 350.688V351.024C620.633 351.664 620.847 352.16 621.273 352.512C621.7 352.853 622.303 353.024 623.081 353.024ZM623.081 347.568C623.785 347.568 624.319 347.419 624.681 347.12C625.044 346.821 625.225 346.384 625.225 345.808V345.568C625.225 344.992 625.044 344.555 624.681 344.256C624.319 343.957 623.785 343.808 623.081 343.808C622.377 343.808 621.844 343.957 621.481 344.256C621.119 344.555 620.937 344.992 620.937 345.568V345.808C620.937 346.384 621.119 346.821 621.481 347.12C621.844 347.419 622.377 347.568 623.081 347.568Z" fill="#3B2F59"/>
<rect x="630" y="329" width="23" height="292" rx="3" transform="rotate(-180 630 329)" fill="#F74874"/>
</g>
<rect x="160" y="331" width="480" height="4" rx="2" fill="#C8C5DB"/>
<path d="M259.5 53.5001L243.5 46L259.5 38.5001L255.5 46L259.5 53.5001Z" fill="#5E5477"/>
<path d="M597.5 48C598.605 48 599.5 47.1046 599.5 46C599.5 44.8954 598.605 44 597.5 44V48ZM243.5 46L242.651 44.1891C241.949 44.5184 241.5 45.2242 241.5 46C241.5 46.7758 241.949 47.4816 242.651 47.8109L243.5 46ZM259.5 53.5001L258.651 55.311C259.431 55.6765 260.357 55.5018 260.95 54.8773C261.543 54.2528 261.67 53.3188 261.265 52.5589L259.5 53.5001ZM259.5 38.5001L261.265 39.4412C261.67 38.6813 261.543 37.7473 260.95 37.1228C260.357 36.4983 259.431 36.3236 258.651 36.6891L259.5 38.5001ZM255.5 46L253.735 45.0588C253.422 45.6471 253.422 46.353 253.735 46.9412L255.5 46ZM242.651 47.8109L258.651 55.311L260.349 51.6891L244.349 44.1891L242.651 47.8109ZM244.349 47.8109L260.349 40.311L258.651 36.6891L242.651 44.1891L244.349 47.8109ZM257.265 46.9412L261.265 39.4412L257.735 37.5589L253.735 45.0588L257.265 46.9412ZM253.735 46.9412L257.735 54.4412L261.265 52.5589L257.265 45.0588L253.735 46.9412ZM597.5 44H255.5V48H597.5V44Z" fill="#5E5477"/>
<path d="M259.5 112.5L243.5 105L259.5 97.5L255.5 105L259.5 112.5Z" fill="#5E5477"/>
<path d="M393.5 105L255.5 105M255.5 105L259.5 97.5L243.5 105L259.5 112.5L255.5 105Z" stroke="#5E5477" stroke-width="4" stroke-linecap="round" stroke-linejoin="round"/>
<defs>
<clipPath id="clip0">
<rect width="480" height="22" fill="white" transform="translate(160 56)"/>
</clipPath>
<clipPath id="clip1">
<rect width="480" height="22" fill="white" transform="translate(160 159)"/>
</clipPath>
<clipPath id="clip2">
<rect width="480" height="22" fill="white" transform="translate(160 262)"/>
</clipPath>
<clipPath id="clip3">
<rect width="396" height="321" fill="white" transform="translate(242 37)"/>
</clipPath>
<clipPath id="clip4">
<rect width="39" height="300" fill="white" transform="translate(434 358) rotate(-180)"/>
</clipPath>
<clipPath id="clip5">
<rect width="39" height="203" fill="white" transform="translate(536 358) rotate(-180)"/>
</clipPath>
</defs>
</svg>
