<svg width="1065" height="354" viewBox="0 0 1065 354" fill="none" xmlns="http://www.w3.org/2000/svg">
<g clip-path="url(#clip0)">
<rect width="1065" height="354" fill="white"/>
<path d="M654.8 257C625.639 257 602 233.361 602 204.2C602 184.76 586.24 169 566.8 169H555V131H566.8C586.24 131 602 115.24 602 95.8C602 66.6394 625.639 43 654.8 43H697.172V22L737 62L697.172 102V81H665C651.193 81 640 92.1929 640 106C640 119.807 651.193 131 665 131H697.172V110L737 150L697.172 190V169H665C651.193 169 640 180.193 640 194C640 207.807 651.193 219 665 219H697.172V198L737 238L697.172 278V257H654.8Z" fill="#C8C5DB"/>
<path d="M200 173V135H285V114L325 154L285 194V173H200Z" fill="#C8C5DB"/>
<g filter="url(#filter0_d)">
<mask id="mask0" mask-type="alpha" maskUnits="userSpaceOnUse" x="49" y="56" width="156" height="189">
<path d="M49 56H148L205 113V245H49V56Z" fill="#EFF0F2"/>
</mask>
<g mask="url(#mask0)">
<path d="M49 56H148L205 113V245H49V56Z" fill="#EFF0F2"/>
</g>
</g>
<g filter="url(#filter1_d)">
<mask id="mask1" mask-type="alpha" maskUnits="userSpaceOnUse" x="65" y="40" width="156" height="189">
<path d="M65 40H164L221 97V229H65V40Z" fill="#EFF0F2"/>
</mask>
<g mask="url(#mask1)">
<path d="M65 40H164L221 97V229H65V40Z" fill="#EFF0F2"/>
<rect x="65" y="40" width="27.3396" height="189" fill="#9DA3AF"/>
<path d="M75.1103 74.0189V72.9829H77.8403V65.1149H77.7423L75.2783 67.4109L74.5923 66.6689L77.1823 64.2469H79.0163V72.9829H81.5363V74.0189H75.1103ZM81.3403 93.0189H74.9283V91.8149L78.1203 88.8749C78.5776 88.4549 78.9603 88.0115 79.2683 87.5449C79.5763 87.0689 79.7303 86.5929 79.7303 86.1169V85.9489C79.7303 85.4075 79.5809 84.9689 79.2823 84.6329C78.9836 84.2969 78.5309 84.1289 77.9243 84.1289C77.6256 84.1289 77.3643 84.1709 77.1403 84.2549C76.9163 84.3389 76.7203 84.4555 76.5523 84.6049C76.3936 84.7542 76.2583 84.9315 76.1463 85.1369C76.0436 85.3329 75.9596 85.5475 75.8943 85.7809L74.8443 85.3749C74.9376 85.0855 75.0636 84.8055 75.2223 84.5349C75.3903 84.2549 75.5956 84.0075 75.8383 83.7929C76.0903 83.5782 76.3889 83.4055 76.7343 83.2749C77.0889 83.1442 77.5043 83.0789 77.9803 83.0789C78.4563 83.0789 78.8809 83.1489 79.2543 83.2889C79.6276 83.4289 79.9403 83.6249 80.1923 83.8769C80.4443 84.1289 80.6356 84.4275 80.7663 84.7729C80.9063 85.1182 80.9763 85.5009 80.9763 85.9209C80.9763 86.3035 80.9203 86.6582 80.8083 86.9849C80.7056 87.3115 80.5609 87.6242 80.3743 87.9229C80.1876 88.2122 79.9589 88.4969 79.6883 88.7769C79.4269 89.0569 79.1423 89.3369 78.8343 89.6169L76.2023 91.9829H81.3403V93.0189ZM77.5323 106.391C78.1949 106.391 78.6896 106.242 79.0163 105.943C79.3523 105.635 79.5203 105.243 79.5203 104.767V104.669C79.5203 104.156 79.3569 103.773 79.0303 103.521C78.7129 103.26 78.2929 103.129 77.7703 103.129C77.2663 103.129 76.8556 103.241 76.5383 103.465C76.2209 103.68 75.9596 103.974 75.7543 104.347L74.8863 103.675C75.0076 103.479 75.1523 103.288 75.3203 103.101C75.4976 102.905 75.7029 102.732 75.9363 102.583C76.1696 102.434 76.4403 102.312 76.7483 102.219C77.0563 102.126 77.4063 102.079 77.7983 102.079C78.2089 102.079 78.5963 102.135 78.9603 102.247C79.3243 102.35 79.6369 102.508 79.8983 102.723C80.1689 102.928 80.3789 103.185 80.5283 103.493C80.6869 103.801 80.7663 104.151 80.7663 104.543C80.7663 104.86 80.7149 105.145 80.6123 105.397C80.5189 105.649 80.3883 105.868 80.2203 106.055C80.0523 106.242 79.8516 106.4 79.6183 106.531C79.3943 106.662 79.1516 106.76 78.8903 106.825V106.881C79.1516 106.937 79.4036 107.03 79.6463 107.161C79.8983 107.282 80.1176 107.446 80.3043 107.651C80.5003 107.847 80.6543 108.09 80.7663 108.379C80.8876 108.659 80.9483 108.981 80.9483 109.345C80.9483 109.765 80.8689 110.152 80.7103 110.507C80.5516 110.852 80.3276 111.151 80.0383 111.403C79.7489 111.646 79.3989 111.837 78.9883 111.977C78.5776 112.117 78.1249 112.187 77.6303 112.187C77.2103 112.187 76.8369 112.14 76.5103 112.047C76.1836 111.954 75.8943 111.828 75.6423 111.669C75.3903 111.51 75.1663 111.333 74.9703 111.137C74.7836 110.941 74.6156 110.736 74.4663 110.521L75.3483 109.849C75.4696 110.045 75.6003 110.222 75.7403 110.381C75.8896 110.54 76.0529 110.675 76.2303 110.787C76.4076 110.899 76.6083 110.988 76.8323 111.053C77.0563 111.109 77.3176 111.137 77.6163 111.137C78.3069 111.137 78.8296 110.983 79.1843 110.675C79.5389 110.358 79.7163 109.91 79.7163 109.331V109.219C79.7163 108.64 79.5389 108.197 79.1843 107.889C78.8296 107.572 78.3069 107.413 77.6163 107.413H76.4683V106.391H77.5323ZM79.1283 131.019V129.101H74.4103V128.065L78.4983 121.247H80.2483V128.121H81.6623V129.101H80.2483V131.019H79.1283ZM75.5163 128.121H79.1283V122.157H79.0583L75.5163 128.121ZM80.8503 141.283H76.5663L76.2863 145.007H76.3843C76.6176 144.68 76.8789 144.419 77.1683 144.223C77.4669 144.027 77.8729 143.929 78.3863 143.929C78.8063 143.929 79.1936 143.999 79.5483 144.139C79.9029 144.279 80.2109 144.48 80.4723 144.741C80.7336 144.993 80.9343 145.306 81.0743 145.679C81.2236 146.052 81.2983 146.477 81.2983 146.953C81.2983 147.429 81.2236 147.868 81.0743 148.269C80.9249 148.661 80.7056 149.002 80.4163 149.291C80.1363 149.571 79.7909 149.79 79.3803 149.949C78.9789 150.108 78.5216 150.187 78.0083 150.187C77.5976 150.187 77.2336 150.14 76.9163 150.047C76.6083 149.954 76.3329 149.828 76.0903 149.669C75.8476 149.51 75.6329 149.333 75.4463 149.137C75.2689 148.941 75.1056 148.736 74.9563 148.521L75.8383 147.849C75.9596 148.045 76.0856 148.222 76.2163 148.381C76.3563 148.54 76.5056 148.675 76.6643 148.787C76.8323 148.899 77.0236 148.988 77.2383 149.053C77.4529 149.109 77.7096 149.137 78.0083 149.137C78.6803 149.137 79.1889 148.96 79.5343 148.605C79.8796 148.25 80.0523 147.751 80.0523 147.107V146.967C80.0523 146.323 79.8796 145.824 79.5343 145.469C79.1889 145.114 78.6803 144.937 78.0083 144.937C77.5603 144.937 77.2056 145.021 76.9443 145.189C76.6923 145.348 76.4636 145.539 76.2583 145.763L75.2643 145.623L75.6143 140.247H80.8503V141.283ZM78.0923 169.187C77.5883 169.187 77.1309 169.103 76.7203 168.935C76.3189 168.758 75.9736 168.51 75.6843 168.193C75.4043 167.866 75.1896 167.47 75.0403 167.003C74.8909 166.536 74.8163 166.014 74.8163 165.435C74.8163 164.707 74.9236 164.026 75.1383 163.391C75.3529 162.747 75.6283 162.164 75.9643 161.641C76.3096 161.109 76.6876 160.642 77.0983 160.241C77.5089 159.83 77.9103 159.499 78.3023 159.247H79.8143C79.2916 159.63 78.8249 160.003 78.4143 160.367C78.0036 160.731 77.6443 161.114 77.3363 161.515C77.0283 161.907 76.7669 162.332 76.5523 162.789C76.3376 163.237 76.1649 163.746 76.0343 164.315L76.1043 164.343C76.3376 163.942 76.6363 163.61 77.0003 163.349C77.3736 163.078 77.8589 162.943 78.4563 162.943C78.8763 162.943 79.2636 163.013 79.6183 163.153C79.9729 163.293 80.2763 163.494 80.5283 163.755C80.7803 164.016 80.9763 164.334 81.1163 164.707C81.2656 165.08 81.3403 165.496 81.3403 165.953C81.3403 166.429 81.2609 166.868 81.1023 167.269C80.9529 167.661 80.7336 168.002 80.4443 168.291C80.1643 168.571 79.8236 168.79 79.4223 168.949C79.0209 169.108 78.5776 169.187 78.0923 169.187ZM78.0783 168.165C78.7223 168.165 79.2216 167.988 79.5763 167.633C79.9403 167.278 80.1223 166.77 80.1223 166.107V165.995C80.1223 165.332 79.9403 164.824 79.5763 164.469C79.2216 164.114 78.7223 163.937 78.0783 163.937C77.4343 163.937 76.9303 164.114 76.5663 164.469C76.2116 164.824 76.0343 165.332 76.0343 165.995V166.107C76.0343 166.77 76.2116 167.278 76.5663 167.633C76.9303 167.988 77.4343 168.165 78.0783 168.165ZM76.3283 188.019L80.0663 179.255H75.8943V181.075H74.8443V178.247H81.2563V179.283L77.5883 188.019H76.3283ZM78.0783 207.187C77.5183 207.187 77.0283 207.117 76.6083 206.977C76.1883 206.828 75.8336 206.627 75.5443 206.375C75.2643 206.123 75.0496 205.824 74.9003 205.479C74.7603 205.134 74.6903 204.76 74.6903 204.359C74.6903 203.687 74.8723 203.155 75.2363 202.763C75.6003 202.371 76.0763 202.096 76.6643 201.937V201.825C76.1509 201.648 75.7403 201.363 75.4323 200.971C75.1336 200.57 74.9843 200.089 74.9843 199.529C74.9843 198.782 75.2549 198.19 75.7963 197.751C76.3376 197.303 77.0983 197.079 78.0783 197.079C79.0583 197.079 79.8189 197.303 80.3603 197.751C80.9016 198.19 81.1723 198.782 81.1723 199.529C81.1723 200.089 81.0183 200.57 80.7103 200.971C80.4116 201.363 80.0056 201.648 79.4923 201.825V201.937C80.0803 202.096 80.5563 202.371 80.9203 202.763C81.2843 203.155 81.4663 203.687 81.4663 204.359C81.4663 204.76 81.3916 205.134 81.2423 205.479C81.1023 205.824 80.8876 206.123 80.5983 206.375C80.3183 206.627 79.9683 206.828 79.5483 206.977C79.1283 207.117 78.6383 207.187 78.0783 207.187ZM78.0783 206.165C78.7596 206.165 79.2869 206.016 79.6603 205.717C80.0336 205.409 80.2203 204.975 80.2203 204.415V204.121C80.2203 203.561 80.0336 203.132 79.6603 202.833C79.2869 202.525 78.7596 202.371 78.0783 202.371C77.3969 202.371 76.8696 202.525 76.4963 202.833C76.1229 203.132 75.9363 203.561 75.9363 204.121V204.415C75.9363 204.975 76.1229 205.409 76.4963 205.717C76.8696 206.016 77.3969 206.165 78.0783 206.165ZM78.0783 201.391C78.6943 201.391 79.1609 201.26 79.4783 200.999C79.7956 200.738 79.9543 200.355 79.9543 199.851V199.641C79.9543 199.137 79.7956 198.754 79.4783 198.493C79.1609 198.232 78.6943 198.101 78.0783 198.101C77.4623 198.101 76.9956 198.232 76.6783 198.493C76.3609 198.754 76.2023 199.137 76.2023 199.641V199.851C76.2023 200.355 76.3609 200.738 76.6783 200.999C76.9956 201.26 77.4623 201.391 78.0783 201.391Z" fill="white"/>
<rect x="105" y="65" width="76" height="8" fill="#CACED4"/>
<rect x="124" y="84" width="70" height="8" fill="#CACED4"/>
<rect x="124" y="103" width="48" height="8" fill="#CACED4"/>
<rect x="105" y="122" width="39" height="8" fill="#CACED4"/>
<rect x="105" y="141" width="64" height="8" fill="#CACED4"/>
<rect x="124.019" y="160" width="33" height="8" fill="#CACED4"/>
<rect x="124.019" y="179" width="60" height="8" fill="#CACED4"/>
<rect x="105" y="198" width="21" height="8" fill="#CACED4"/>
<g filter="url(#filter2_d)">
<path d="M220.717 97L164 40V97L220.717 97Z" fill="#9DA3AF"/>
</g>
</g>
</g>
<path d="M45.7854 317V309.824L39.5454 298.852H42.0414L46.8774 307.588H46.9554L51.7914 298.852H54.2874L47.9694 309.746V317H45.7854ZM60.3446 317.312C59.4433 317.312 58.6199 317.147 57.8746 316.818C57.1293 316.489 56.4879 316.021 55.9506 315.414C55.4306 314.79 55.0233 314.053 54.7286 313.204C54.4339 312.337 54.2866 311.367 54.2866 310.292C54.2866 309.235 54.4339 308.273 54.7286 307.406C55.0233 306.539 55.4306 305.803 55.9506 305.196C56.4879 304.572 57.1293 304.095 57.8746 303.766C58.6199 303.437 59.4433 303.272 60.3446 303.272C61.2459 303.272 62.0606 303.437 62.7886 303.766C63.5339 304.095 64.1753 304.572 64.7126 305.196C65.2499 305.803 65.6659 306.539 65.9606 307.406C66.2553 308.273 66.4026 309.235 66.4026 310.292C66.4026 311.367 66.2553 312.337 65.9606 313.204C65.6659 314.053 65.2499 314.79 64.7126 315.414C64.1753 316.021 63.5339 316.489 62.7886 316.818C62.0606 317.147 61.2459 317.312 60.3446 317.312ZM60.3446 315.466C61.4713 315.466 62.3899 315.119 63.1006 314.426C63.8113 313.733 64.1666 312.675 64.1666 311.254V309.33C64.1666 307.909 63.8113 306.851 63.1006 306.158C62.3899 305.465 61.4713 305.118 60.3446 305.118C59.2179 305.118 58.2993 305.465 57.5886 306.158C56.8779 306.851 56.5226 307.909 56.5226 309.33V311.254C56.5226 312.675 56.8779 313.733 57.5886 314.426C58.2993 315.119 59.2179 315.466 60.3446 315.466ZM77.8314 314.816H77.7274C77.5888 315.128 77.4154 315.44 77.2074 315.752C77.0168 316.047 76.7741 316.315 76.4794 316.558C76.1848 316.783 75.8294 316.965 75.4134 317.104C74.9974 317.243 74.5121 317.312 73.9574 317.312C72.5708 317.312 71.4701 316.87 70.6554 315.986C69.8408 315.085 69.4334 313.819 69.4334 312.19V303.584H71.5134V311.826C71.5134 314.235 72.5361 315.44 74.5814 315.44C74.9974 315.44 75.3961 315.388 75.7774 315.284C76.1761 315.18 76.5228 315.024 76.8174 314.816C77.1294 314.608 77.3721 314.348 77.5454 314.036C77.7361 313.707 77.8314 313.317 77.8314 312.866V303.584H79.9114V317H77.8314V314.816ZM84.0808 317V303.584H86.1608V306.054H86.2908C86.5335 305.413 86.9668 304.841 87.5908 304.338C88.2148 303.835 89.0728 303.584 90.1648 303.584H90.9708V305.664H89.7488C88.6221 305.664 87.7381 305.881 87.0968 306.314C86.4728 306.73 86.1608 307.259 86.1608 307.9V317H84.0808ZM100.292 300.438C99.8415 300.438 99.5122 300.334 99.3042 300.126C99.1135 299.901 99.0182 299.615 99.0182 299.268V298.93C99.0182 298.583 99.1135 298.306 99.3042 298.098C99.5122 297.873 99.8415 297.76 100.292 297.76C100.743 297.76 101.064 297.873 101.254 298.098C101.462 298.306 101.566 298.583 101.566 298.93V299.268C101.566 299.615 101.462 299.901 101.254 300.126C101.064 300.334 100.743 300.438 100.292 300.438ZM99.2522 303.584H101.332V317H99.2522V303.584ZM105.492 317V303.584H107.572V305.768H107.676C108.006 305.005 108.465 304.399 109.054 303.948C109.661 303.497 110.467 303.272 111.472 303.272C112.859 303.272 113.951 303.723 114.748 304.624C115.563 305.508 115.97 306.765 115.97 308.394V317H113.89V308.758C113.89 306.349 112.876 305.144 110.848 305.144C110.432 305.144 110.025 305.196 109.626 305.3C109.245 305.404 108.898 305.56 108.586 305.768C108.274 305.976 108.023 306.245 107.832 306.574C107.659 306.886 107.572 307.259 107.572 307.692V317H105.492ZM125.002 317.312C124.066 317.312 123.225 317.147 122.48 316.818C121.734 316.489 121.102 316.021 120.582 315.414C120.079 314.807 119.689 314.071 119.412 313.204C119.152 312.337 119.022 311.367 119.022 310.292C119.022 309.217 119.152 308.247 119.412 307.38C119.689 306.513 120.079 305.777 120.582 305.17C121.102 304.563 121.734 304.095 122.48 303.766C123.225 303.437 124.066 303.272 125.002 303.272C126.336 303.272 127.402 303.567 128.2 304.156C129.014 304.728 129.621 305.482 130.02 306.418L128.278 307.302C128.035 306.609 127.636 306.071 127.082 305.69C126.527 305.309 125.834 305.118 125.002 305.118C124.378 305.118 123.832 305.222 123.364 305.43C122.896 305.621 122.506 305.898 122.194 306.262C121.882 306.609 121.648 307.033 121.492 307.536C121.336 308.021 121.258 308.559 121.258 309.148V311.436C121.258 312.615 121.57 313.585 122.194 314.348C122.835 315.093 123.771 315.466 125.002 315.466C126.683 315.466 127.896 314.686 128.642 313.126L130.15 314.14C129.716 315.111 129.066 315.882 128.2 316.454C127.35 317.026 126.284 317.312 125.002 317.312ZM137.743 317.312C136.842 317.312 136.019 317.147 135.273 316.818C134.528 316.489 133.887 316.021 133.349 315.414C132.829 314.79 132.422 314.053 132.127 313.204C131.833 312.337 131.685 311.367 131.685 310.292C131.685 309.235 131.833 308.273 132.127 307.406C132.422 306.539 132.829 305.803 133.349 305.196C133.887 304.572 134.528 304.095 135.273 303.766C136.019 303.437 136.842 303.272 137.743 303.272C138.645 303.272 139.459 303.437 140.187 303.766C140.933 304.095 141.574 304.572 142.111 305.196C142.649 305.803 143.065 306.539 143.359 307.406C143.654 308.273 143.801 309.235 143.801 310.292C143.801 311.367 143.654 312.337 143.359 313.204C143.065 314.053 142.649 314.79 142.111 315.414C141.574 316.021 140.933 316.489 140.187 316.818C139.459 317.147 138.645 317.312 137.743 317.312ZM137.743 315.466C138.87 315.466 139.789 315.119 140.499 314.426C141.21 313.733 141.565 312.675 141.565 311.254V309.33C141.565 307.909 141.21 306.851 140.499 306.158C139.789 305.465 138.87 305.118 137.743 305.118C136.617 305.118 135.698 305.465 134.987 306.158C134.277 306.851 133.921 307.909 133.921 309.33V311.254C133.921 312.675 134.277 313.733 134.987 314.426C135.698 315.119 136.617 315.466 137.743 315.466ZM146.962 317V303.584H149.042V305.768H149.146C149.302 305.421 149.476 305.101 149.666 304.806C149.874 304.494 150.117 304.225 150.394 304C150.689 303.775 151.027 303.601 151.408 303.48C151.79 303.341 152.24 303.272 152.76 303.272C153.644 303.272 154.459 303.489 155.204 303.922C155.95 304.338 156.504 305.031 156.868 306.002H156.92C157.163 305.274 157.614 304.641 158.272 304.104C158.948 303.549 159.858 303.272 161.002 303.272C162.372 303.272 163.438 303.723 164.2 304.624C164.98 305.508 165.37 306.765 165.37 308.394V317H163.29V308.758C163.29 307.562 163.056 306.661 162.588 306.054C162.12 305.447 161.375 305.144 160.352 305.144C159.936 305.144 159.538 305.196 159.156 305.3C158.792 305.404 158.463 305.56 158.168 305.768C157.874 305.976 157.64 306.245 157.466 306.574C157.293 306.886 157.206 307.259 157.206 307.692V317H155.126V308.758C155.126 307.562 154.892 306.661 154.424 306.054C153.956 305.447 153.228 305.144 152.24 305.144C151.824 305.144 151.426 305.196 151.044 305.3C150.663 305.404 150.325 305.56 150.03 305.768C149.736 305.976 149.493 306.245 149.302 306.574C149.129 306.886 149.042 307.259 149.042 307.692V317H146.962ZM170.441 300.438C169.991 300.438 169.661 300.334 169.453 300.126C169.263 299.901 169.167 299.615 169.167 299.268V298.93C169.167 298.583 169.263 298.306 169.453 298.098C169.661 297.873 169.991 297.76 170.441 297.76C170.892 297.76 171.213 297.873 171.403 298.098C171.611 298.306 171.715 298.583 171.715 298.93V299.268C171.715 299.615 171.611 299.901 171.403 300.126C171.213 300.334 170.892 300.438 170.441 300.438ZM169.401 303.584H171.481V317H169.401V303.584ZM175.641 317V303.584H177.721V305.768H177.825C178.155 305.005 178.614 304.399 179.203 303.948C179.81 303.497 180.616 303.272 181.621 303.272C183.008 303.272 184.1 303.723 184.897 304.624C185.712 305.508 186.119 306.765 186.119 308.394V317H184.039V308.758C184.039 306.349 183.025 305.144 180.997 305.144C180.581 305.144 180.174 305.196 179.775 305.3C179.394 305.404 179.047 305.56 178.735 305.768C178.423 305.976 178.172 306.245 177.981 306.574C177.808 306.886 177.721 307.259 177.721 307.692V317H175.641ZM201.469 318.482C201.469 319.869 200.923 320.883 199.831 321.524C198.756 322.183 197.135 322.512 194.969 322.512C192.871 322.512 191.363 322.226 190.445 321.654C189.526 321.082 189.067 320.267 189.067 319.21C189.067 318.482 189.257 317.91 189.639 317.494C190.02 317.095 190.54 316.801 191.199 316.61V316.324C190.401 315.943 190.003 315.319 190.003 314.452C190.003 313.776 190.219 313.265 190.653 312.918C191.086 312.554 191.641 312.285 192.317 312.112V312.008C191.519 311.627 190.895 311.081 190.445 310.37C190.011 309.659 189.795 308.836 189.795 307.9C189.795 307.224 189.916 306.6 190.159 306.028C190.401 305.456 190.739 304.971 191.173 304.572C191.623 304.156 192.152 303.835 192.759 303.61C193.383 303.385 194.076 303.272 194.839 303.272C195.792 303.272 196.641 303.445 197.387 303.792V303.558C197.387 303.038 197.508 302.613 197.751 302.284C197.993 301.937 198.392 301.764 198.947 301.764H200.949V303.584H198.401V304.442C198.886 304.858 199.259 305.361 199.519 305.95C199.796 306.522 199.935 307.172 199.935 307.9C199.935 308.576 199.813 309.2 199.571 309.772C199.328 310.344 198.981 310.838 198.531 311.254C198.097 311.653 197.569 311.965 196.945 312.19C196.321 312.415 195.627 312.528 194.865 312.528C194.431 312.528 193.998 312.485 193.565 312.398C193.114 312.519 192.707 312.701 192.343 312.944C191.979 313.169 191.797 313.49 191.797 313.906C191.797 314.305 191.987 314.573 192.369 314.712C192.75 314.851 193.244 314.92 193.851 314.92H196.711C198.375 314.92 199.579 315.241 200.325 315.882C201.087 316.506 201.469 317.373 201.469 318.482ZM199.519 318.638C199.519 318.101 199.311 317.667 198.895 317.338C198.496 317.026 197.777 316.87 196.737 316.87H192.265C191.433 317.251 191.017 317.858 191.017 318.69C191.017 319.279 191.233 319.782 191.667 320.198C192.117 320.614 192.871 320.822 193.929 320.822H195.853C197.014 320.822 197.915 320.64 198.557 320.276C199.198 319.912 199.519 319.366 199.519 318.638ZM194.865 310.864C195.749 310.864 196.451 310.656 196.971 310.24C197.491 309.807 197.751 309.148 197.751 308.264V307.536C197.751 306.652 197.491 306.002 196.971 305.586C196.451 305.153 195.749 304.936 194.865 304.936C193.981 304.936 193.279 305.153 192.759 305.586C192.239 306.002 191.979 306.652 191.979 307.536V308.264C191.979 309.148 192.239 309.807 192.759 310.24C193.279 310.656 193.981 310.864 194.865 310.864ZM214.512 317.312C213.576 317.312 212.735 317.147 211.99 316.818C211.244 316.489 210.612 316.021 210.092 315.414C209.589 314.807 209.199 314.071 208.922 313.204C208.662 312.337 208.532 311.367 208.532 310.292C208.532 309.217 208.662 308.247 208.922 307.38C209.199 306.513 209.589 305.777 210.092 305.17C210.612 304.563 211.244 304.095 211.99 303.766C212.735 303.437 213.576 303.272 214.512 303.272C215.846 303.272 216.912 303.567 217.71 304.156C218.524 304.728 219.131 305.482 219.53 306.418L217.788 307.302C217.545 306.609 217.146 306.071 216.592 305.69C216.037 305.309 215.344 305.118 214.512 305.118C213.888 305.118 213.342 305.222 212.874 305.43C212.406 305.621 212.016 305.898 211.704 306.262C211.392 306.609 211.158 307.033 211.002 307.536C210.846 308.021 210.768 308.559 210.768 309.148V311.436C210.768 312.615 211.08 313.585 211.704 314.348C212.345 315.093 213.281 315.466 214.512 315.466C216.193 315.466 217.406 314.686 218.152 313.126L219.66 314.14C219.226 315.111 218.576 315.882 217.71 316.454C216.86 317.026 215.794 317.312 214.512 317.312ZM222.336 297.76H224.416V305.768H224.52C224.849 305.005 225.308 304.399 225.898 303.948C226.504 303.497 227.31 303.272 228.316 303.272C229.702 303.272 230.794 303.723 231.592 304.624C232.406 305.508 232.814 306.765 232.814 308.394V317H230.734V308.758C230.734 306.349 229.72 305.144 227.692 305.144C227.276 305.144 226.868 305.196 226.47 305.3C226.088 305.404 225.742 305.56 225.43 305.768C225.118 305.976 224.866 306.245 224.676 306.574C224.502 306.886 224.416 307.259 224.416 307.692V317H222.336V297.76ZM246.603 317C245.823 317 245.26 316.792 244.913 316.376C244.584 315.96 244.376 315.44 244.289 314.816H244.159C243.864 315.648 243.379 316.272 242.703 316.688C242.027 317.104 241.221 317.312 240.285 317.312C238.864 317.312 237.754 316.948 236.957 316.22C236.177 315.492 235.787 314.504 235.787 313.256C235.787 311.991 236.246 311.02 237.165 310.344C238.101 309.668 239.548 309.33 241.507 309.33H244.159V308.004C244.159 307.051 243.899 306.323 243.379 305.82C242.859 305.317 242.062 305.066 240.987 305.066C240.172 305.066 239.488 305.248 238.933 305.612C238.396 305.976 237.945 306.461 237.581 307.068L236.333 305.898C236.697 305.17 237.278 304.555 238.075 304.052C238.872 303.532 239.878 303.272 241.091 303.272C242.72 303.272 243.986 303.671 244.887 304.468C245.788 305.265 246.239 306.375 246.239 307.796V315.18H247.773V317H246.603ZM240.623 315.544C241.143 315.544 241.62 315.483 242.053 315.362C242.486 315.241 242.859 315.067 243.171 314.842C243.483 314.617 243.726 314.357 243.899 314.062C244.072 313.767 244.159 313.447 244.159 313.1V310.89H241.403C240.207 310.89 239.332 311.063 238.777 311.41C238.24 311.757 237.971 312.259 237.971 312.918V313.464C237.971 314.123 238.205 314.634 238.673 314.998C239.158 315.362 239.808 315.544 240.623 315.544ZM250.482 317V303.584H252.562V305.768H252.666C252.995 305.005 253.454 304.399 254.044 303.948C254.65 303.497 255.456 303.272 256.462 303.272C257.848 303.272 258.94 303.723 259.738 304.624C260.552 305.508 260.96 306.765 260.96 308.394V317H258.88V308.758C258.88 306.349 257.866 305.144 255.838 305.144C255.422 305.144 255.014 305.196 254.616 305.3C254.234 305.404 253.888 305.56 253.576 305.768C253.264 305.976 253.012 306.245 252.822 306.574C252.648 306.886 252.562 307.259 252.562 307.692V317H250.482ZM276.309 318.482C276.309 319.869 275.763 320.883 274.671 321.524C273.596 322.183 271.976 322.512 269.809 322.512C267.712 322.512 266.204 322.226 265.285 321.654C264.366 321.082 263.907 320.267 263.907 319.21C263.907 318.482 264.098 317.91 264.479 317.494C264.86 317.095 265.38 316.801 266.039 316.61V316.324C265.242 315.943 264.843 315.319 264.843 314.452C264.843 313.776 265.06 313.265 265.493 312.918C265.926 312.554 266.481 312.285 267.157 312.112V312.008C266.36 311.627 265.736 311.081 265.285 310.37C264.852 309.659 264.635 308.836 264.635 307.9C264.635 307.224 264.756 306.6 264.999 306.028C265.242 305.456 265.58 304.971 266.013 304.572C266.464 304.156 266.992 303.835 267.599 303.61C268.223 303.385 268.916 303.272 269.679 303.272C270.632 303.272 271.482 303.445 272.227 303.792V303.558C272.227 303.038 272.348 302.613 272.591 302.284C272.834 301.937 273.232 301.764 273.787 301.764H275.789V303.584H273.241V304.442C273.726 304.858 274.099 305.361 274.359 305.95C274.636 306.522 274.775 307.172 274.775 307.9C274.775 308.576 274.654 309.2 274.411 309.772C274.168 310.344 273.822 310.838 273.371 311.254C272.938 311.653 272.409 311.965 271.785 312.19C271.161 312.415 270.468 312.528 269.705 312.528C269.272 312.528 268.838 312.485 268.405 312.398C267.954 312.519 267.547 312.701 267.183 312.944C266.819 313.169 266.637 313.49 266.637 313.906C266.637 314.305 266.828 314.573 267.209 314.712C267.59 314.851 268.084 314.92 268.691 314.92H271.551C273.215 314.92 274.42 315.241 275.165 315.882C275.928 316.506 276.309 317.373 276.309 318.482ZM274.359 318.638C274.359 318.101 274.151 317.667 273.735 317.338C273.336 317.026 272.617 316.87 271.577 316.87H267.105C266.273 317.251 265.857 317.858 265.857 318.69C265.857 319.279 266.074 319.782 266.507 320.198C266.958 320.614 267.712 320.822 268.769 320.822H270.693C271.854 320.822 272.756 320.64 273.397 320.276C274.038 319.912 274.359 319.366 274.359 318.638ZM269.705 310.864C270.589 310.864 271.291 310.656 271.811 310.24C272.331 309.807 272.591 309.148 272.591 308.264V307.536C272.591 306.652 272.331 306.002 271.811 305.586C271.291 305.153 270.589 304.936 269.705 304.936C268.821 304.936 268.119 305.153 267.599 305.586C267.079 306.002 266.819 306.652 266.819 307.536V308.264C266.819 309.148 267.079 309.807 267.599 310.24C268.119 310.656 268.821 310.864 269.705 310.864ZM283.367 317.312C282.448 317.312 281.616 317.147 280.871 316.818C280.143 316.489 279.51 316.021 278.973 315.414C278.453 314.79 278.046 314.053 277.751 313.204C277.474 312.337 277.335 311.367 277.335 310.292C277.335 309.235 277.474 308.273 277.751 307.406C278.046 306.539 278.453 305.803 278.973 305.196C279.51 304.572 280.143 304.095 280.871 303.766C281.616 303.437 282.448 303.272 283.367 303.272C284.268 303.272 285.074 303.437 285.785 303.766C286.496 304.095 287.102 304.555 287.605 305.144C288.108 305.716 288.489 306.401 288.749 307.198C289.026 307.995 289.165 308.871 289.165 309.824V310.812H279.519V311.436C279.519 312.008 279.606 312.545 279.779 313.048C279.97 313.533 280.23 313.958 280.559 314.322C280.906 314.686 281.322 314.972 281.807 315.18C282.31 315.388 282.873 315.492 283.497 315.492C284.346 315.492 285.083 315.293 285.707 314.894C286.348 314.495 286.842 313.923 287.189 313.178L288.671 314.244C288.238 315.163 287.562 315.908 286.643 316.48C285.724 317.035 284.632 317.312 283.367 317.312ZM283.367 305.014C282.795 305.014 282.275 305.118 281.807 305.326C281.339 305.517 280.932 305.794 280.585 306.158C280.256 306.522 279.996 306.955 279.805 307.458C279.614 307.943 279.519 308.481 279.519 309.07V309.252H286.929V308.966C286.929 307.77 286.6 306.817 285.941 306.106C285.3 305.378 284.442 305.014 283.367 305.014ZM296.363 317.312C295.115 317.312 294.066 317.078 293.217 316.61C292.385 316.125 291.665 315.483 291.059 314.686L292.541 313.49C293.061 314.149 293.641 314.66 294.283 315.024C294.924 315.371 295.669 315.544 296.519 315.544C297.403 315.544 298.087 315.353 298.573 314.972C299.075 314.591 299.327 314.053 299.327 313.36C299.327 312.84 299.153 312.398 298.807 312.034C298.477 311.653 297.871 311.393 296.987 311.254L295.921 311.098C295.297 311.011 294.725 310.881 294.205 310.708C293.685 310.517 293.225 310.275 292.827 309.98C292.445 309.668 292.142 309.287 291.917 308.836C291.709 308.385 291.605 307.848 291.605 307.224C291.605 306.565 291.726 305.993 291.969 305.508C292.211 305.005 292.541 304.589 292.957 304.26C293.39 303.931 293.901 303.688 294.491 303.532C295.08 303.359 295.713 303.272 296.389 303.272C297.481 303.272 298.391 303.463 299.119 303.844C299.864 304.225 300.514 304.754 301.069 305.43L299.691 306.678C299.396 306.262 298.963 305.889 298.391 305.56C297.819 305.213 297.099 305.04 296.233 305.04C295.366 305.04 294.707 305.231 294.257 305.612C293.823 305.976 293.607 306.479 293.607 307.12C293.607 307.779 293.823 308.255 294.257 308.55C294.707 308.845 295.349 309.061 296.181 309.2L297.221 309.356C298.711 309.581 299.769 310.015 300.393 310.656C301.017 311.28 301.329 312.103 301.329 313.126C301.329 314.426 300.887 315.449 300.003 316.194C299.119 316.939 297.905 317.312 296.363 317.312Z" fill="#1C0D3E"/>
<path d="M462.953 317.312C461.775 317.312 460.709 317.113 459.755 316.714C458.819 316.298 458.013 315.7 457.337 314.92C456.679 314.123 456.167 313.143 455.803 311.982C455.439 310.803 455.257 309.451 455.257 307.926C455.257 306.401 455.439 305.057 455.803 303.896C456.167 302.735 456.679 301.755 457.337 300.958C458.013 300.161 458.819 299.563 459.755 299.164C460.709 298.748 461.775 298.54 462.953 298.54C464.115 298.54 465.172 298.748 466.125 299.164C467.079 299.563 467.885 300.161 468.543 300.958C469.219 301.755 469.739 302.735 470.103 303.896C470.467 305.057 470.649 306.401 470.649 307.926C470.649 309.451 470.467 310.803 470.103 311.982C469.739 313.143 469.219 314.123 468.543 314.92C467.885 315.7 467.079 316.298 466.125 316.714C465.172 317.113 464.115 317.312 462.953 317.312ZM462.953 315.362C463.733 315.362 464.453 315.223 465.111 314.946C465.77 314.669 466.333 314.27 466.801 313.75C467.287 313.23 467.659 312.606 467.919 311.878C468.179 311.15 468.309 310.335 468.309 309.434V306.418C468.309 305.517 468.179 304.702 467.919 303.974C467.659 303.246 467.287 302.622 466.801 302.102C466.333 301.582 465.77 301.183 465.111 300.906C464.453 300.629 463.733 300.49 462.953 300.49C462.173 300.49 461.454 300.629 460.795 300.906C460.137 301.183 459.565 301.582 459.079 302.102C458.611 302.622 458.247 303.246 457.987 303.974C457.727 304.702 457.597 305.517 457.597 306.418V309.434C457.597 310.335 457.727 311.15 457.987 311.878C458.247 312.606 458.611 313.23 459.079 313.75C459.565 314.27 460.137 314.669 460.795 314.946C461.454 315.223 462.173 315.362 462.953 315.362ZM482.376 314.816H482.272C482.133 315.128 481.96 315.44 481.752 315.752C481.561 316.047 481.318 316.315 481.024 316.558C480.729 316.783 480.374 316.965 479.958 317.104C479.542 317.243 479.056 317.312 478.502 317.312C477.115 317.312 476.014 316.87 475.2 315.986C474.385 315.085 473.978 313.819 473.978 312.19V303.584H476.058V311.826C476.058 314.235 477.08 315.44 479.126 315.44C479.542 315.44 479.94 315.388 480.322 315.284C480.72 315.18 481.067 315.024 481.362 314.816C481.674 314.608 481.916 314.348 482.09 314.036C482.28 313.707 482.376 313.317 482.376 312.866V303.584H484.456V317H482.376V314.816ZM488.625 317V303.584H490.705V306.054H490.835C491.078 305.413 491.511 304.841 492.135 304.338C492.759 303.835 493.617 303.584 494.709 303.584H495.515V305.664H494.293C493.166 305.664 492.282 305.881 491.641 306.314C491.017 306.73 490.705 307.259 490.705 307.9V317H488.625ZM513.546 317C512.766 317 512.203 316.792 511.856 316.376C511.527 315.96 511.319 315.44 511.232 314.816H511.102C510.808 315.648 510.322 316.272 509.646 316.688C508.97 317.104 508.164 317.312 507.228 317.312C505.807 317.312 504.698 316.948 503.9 316.22C503.12 315.492 502.73 314.504 502.73 313.256C502.73 311.991 503.19 311.02 504.108 310.344C505.044 309.668 506.492 309.33 508.45 309.33H511.102V308.004C511.102 307.051 510.842 306.323 510.322 305.82C509.802 305.317 509.005 305.066 507.93 305.066C507.116 305.066 506.431 305.248 505.876 305.612C505.339 305.976 504.888 306.461 504.524 307.068L503.276 305.898C503.64 305.17 504.221 304.555 505.018 304.052C505.816 303.532 506.821 303.272 508.034 303.272C509.664 303.272 510.929 303.671 511.83 304.468C512.732 305.265 513.182 306.375 513.182 307.796V315.18H514.716V317H513.546ZM507.566 315.544C508.086 315.544 508.563 315.483 508.996 315.362C509.43 315.241 509.802 315.067 510.114 314.842C510.426 314.617 510.669 314.357 510.842 314.062C511.016 313.767 511.102 313.447 511.102 313.1V310.89H508.346C507.15 310.89 506.275 311.063 505.72 311.41C505.183 311.757 504.914 312.259 504.914 312.918V313.464C504.914 314.123 505.148 314.634 505.616 314.998C506.102 315.362 506.752 315.544 507.566 315.544ZM519.635 317C518.907 317 518.352 316.801 517.971 316.402C517.607 315.986 517.425 315.466 517.425 314.842V297.76H519.505V315.18H521.481V317H519.635ZM535.559 318.482C535.559 319.869 535.013 320.883 533.921 321.524C532.846 322.183 531.226 322.512 529.059 322.512C526.962 322.512 525.454 322.226 524.535 321.654C523.616 321.082 523.157 320.267 523.157 319.21C523.157 318.482 523.348 317.91 523.729 317.494C524.11 317.095 524.63 316.801 525.289 316.61V316.324C524.492 315.943 524.093 315.319 524.093 314.452C524.093 313.776 524.31 313.265 524.743 312.918C525.176 312.554 525.731 312.285 526.407 312.112V312.008C525.61 311.627 524.986 311.081 524.535 310.37C524.102 309.659 523.885 308.836 523.885 307.9C523.885 307.224 524.006 306.6 524.249 306.028C524.492 305.456 524.83 304.971 525.263 304.572C525.714 304.156 526.242 303.835 526.849 303.61C527.473 303.385 528.166 303.272 528.929 303.272C529.882 303.272 530.732 303.445 531.477 303.792V303.558C531.477 303.038 531.598 302.613 531.841 302.284C532.084 301.937 532.482 301.764 533.037 301.764H535.039V303.584H532.491V304.442C532.976 304.858 533.349 305.361 533.609 305.95C533.886 306.522 534.025 307.172 534.025 307.9C534.025 308.576 533.904 309.2 533.661 309.772C533.418 310.344 533.072 310.838 532.621 311.254C532.188 311.653 531.659 311.965 531.035 312.19C530.411 312.415 529.718 312.528 528.955 312.528C528.522 312.528 528.088 312.485 527.655 312.398C527.204 312.519 526.797 312.701 526.433 312.944C526.069 313.169 525.887 313.49 525.887 313.906C525.887 314.305 526.078 314.573 526.459 314.712C526.84 314.851 527.334 314.92 527.941 314.92H530.801C532.465 314.92 533.67 315.241 534.415 315.882C535.178 316.506 535.559 317.373 535.559 318.482ZM533.609 318.638C533.609 318.101 533.401 317.667 532.985 317.338C532.586 317.026 531.867 316.87 530.827 316.87H526.355C525.523 317.251 525.107 317.858 525.107 318.69C525.107 319.279 525.324 319.782 525.757 320.198C526.208 320.614 526.962 320.822 528.019 320.822H529.943C531.104 320.822 532.006 320.64 532.647 320.276C533.288 319.912 533.609 319.366 533.609 318.638ZM528.955 310.864C529.839 310.864 530.541 310.656 531.061 310.24C531.581 309.807 531.841 309.148 531.841 308.264V307.536C531.841 306.652 531.581 306.002 531.061 305.586C530.541 305.153 529.839 304.936 528.955 304.936C528.071 304.936 527.369 305.153 526.849 305.586C526.329 306.002 526.069 306.652 526.069 307.536V308.264C526.069 309.148 526.329 309.807 526.849 310.24C527.369 310.656 528.071 310.864 528.955 310.864ZM542.643 317.312C541.742 317.312 540.918 317.147 540.173 316.818C539.428 316.489 538.786 316.021 538.249 315.414C537.729 314.79 537.322 314.053 537.027 313.204C536.732 312.337 536.585 311.367 536.585 310.292C536.585 309.235 536.732 308.273 537.027 307.406C537.322 306.539 537.729 305.803 538.249 305.196C538.786 304.572 539.428 304.095 540.173 303.766C540.918 303.437 541.742 303.272 542.643 303.272C543.544 303.272 544.359 303.437 545.087 303.766C545.832 304.095 546.474 304.572 547.011 305.196C547.548 305.803 547.964 306.539 548.259 307.406C548.554 308.273 548.701 309.235 548.701 310.292C548.701 311.367 548.554 312.337 548.259 313.204C547.964 314.053 547.548 314.79 547.011 315.414C546.474 316.021 545.832 316.489 545.087 316.818C544.359 317.147 543.544 317.312 542.643 317.312ZM542.643 315.466C543.77 315.466 544.688 315.119 545.399 314.426C546.11 313.733 546.465 312.675 546.465 311.254V309.33C546.465 307.909 546.11 306.851 545.399 306.158C544.688 305.465 543.77 305.118 542.643 305.118C541.516 305.118 540.598 305.465 539.887 306.158C539.176 306.851 538.821 307.909 538.821 309.33V311.254C538.821 312.675 539.176 313.733 539.887 314.426C540.598 315.119 541.516 315.466 542.643 315.466ZM551.862 317V303.584H553.942V306.054H554.072C554.315 305.413 554.748 304.841 555.372 304.338C555.996 303.835 556.854 303.584 557.946 303.584H558.752V305.664H557.53C556.403 305.664 555.519 305.881 554.878 306.314C554.254 306.73 553.942 307.259 553.942 307.9V317H551.862ZM562.189 300.438C561.738 300.438 561.409 300.334 561.201 300.126C561.01 299.901 560.915 299.615 560.915 299.268V298.93C560.915 298.583 561.01 298.306 561.201 298.098C561.409 297.873 561.738 297.76 562.189 297.76C562.639 297.76 562.96 297.873 563.151 298.098C563.359 298.306 563.463 298.583 563.463 298.93V299.268C563.463 299.615 563.359 299.901 563.151 300.126C562.96 300.334 562.639 300.438 562.189 300.438ZM561.149 303.584H563.229V317H561.149V303.584ZM570.353 317C569.625 317 569.07 316.801 568.689 316.402C568.325 315.986 568.143 315.449 568.143 314.79V305.404H565.933V303.584H567.181C567.631 303.584 567.935 303.497 568.091 303.324C568.264 303.133 568.351 302.813 568.351 302.362V299.866H570.223V303.584H573.161V305.404H570.223V315.18H572.953V317H570.353ZM576.244 297.76H578.324V305.768H578.428C578.757 305.005 579.217 304.399 579.806 303.948C580.413 303.497 581.219 303.272 582.224 303.272C583.611 303.272 584.703 303.723 585.5 304.624C586.315 305.508 586.722 306.765 586.722 308.394V317H584.642V308.758C584.642 306.349 583.628 305.144 581.6 305.144C581.184 305.144 580.777 305.196 580.378 305.3C579.997 305.404 579.65 305.56 579.338 305.768C579.026 305.976 578.775 306.245 578.584 306.574C578.411 306.886 578.324 307.259 578.324 307.692V317H576.244V297.76ZM590.761 317V303.584H592.841V305.768H592.945C593.101 305.421 593.275 305.101 593.465 304.806C593.673 304.494 593.916 304.225 594.193 304C594.488 303.775 594.826 303.601 595.207 303.48C595.589 303.341 596.039 303.272 596.559 303.272C597.443 303.272 598.258 303.489 599.003 303.922C599.749 304.338 600.303 305.031 600.667 306.002H600.719C600.962 305.274 601.413 304.641 602.071 304.104C602.747 303.549 603.657 303.272 604.801 303.272C606.171 303.272 607.237 303.723 607.999 304.624C608.779 305.508 609.169 306.765 609.169 308.394V317H607.089V308.758C607.089 307.562 606.855 306.661 606.387 306.054C605.919 305.447 605.174 305.144 604.151 305.144C603.735 305.144 603.337 305.196 602.955 305.3C602.591 305.404 602.262 305.56 601.967 305.768C601.673 305.976 601.439 306.245 601.265 306.574C601.092 306.886 601.005 307.259 601.005 307.692V317H598.925V308.758C598.925 307.562 598.691 306.661 598.223 306.054C597.755 305.447 597.027 305.144 596.039 305.144C595.623 305.144 595.225 305.196 594.843 305.3C594.462 305.404 594.124 305.56 593.829 305.768C593.535 305.976 593.292 306.245 593.101 306.574C592.928 306.886 592.841 307.259 592.841 307.692V317H590.761Z" fill="#1C0D3E"/>
<path d="M783.523 300.776V317H781.339V300.776H775.567V298.852H789.295V300.776H783.523ZM795.167 317.312C794.248 317.312 793.416 317.147 792.671 316.818C791.943 316.489 791.31 316.021 790.773 315.414C790.253 314.79 789.846 314.053 789.551 313.204C789.274 312.337 789.135 311.367 789.135 310.292C789.135 309.235 789.274 308.273 789.551 307.406C789.846 306.539 790.253 305.803 790.773 305.196C791.31 304.572 791.943 304.095 792.671 303.766C793.416 303.437 794.248 303.272 795.167 303.272C796.068 303.272 796.874 303.437 797.585 303.766C798.296 304.095 798.902 304.555 799.405 305.144C799.908 305.716 800.289 306.401 800.549 307.198C800.826 307.995 800.965 308.871 800.965 309.824V310.812H791.319V311.436C791.319 312.008 791.406 312.545 791.579 313.048C791.77 313.533 792.03 313.958 792.359 314.322C792.706 314.686 793.122 314.972 793.607 315.18C794.11 315.388 794.673 315.492 795.297 315.492C796.146 315.492 796.883 315.293 797.507 314.894C798.148 314.495 798.642 313.923 798.989 313.178L800.471 314.244C800.038 315.163 799.362 315.908 798.443 316.48C797.524 317.035 796.432 317.312 795.167 317.312ZM795.167 305.014C794.595 305.014 794.075 305.118 793.607 305.326C793.139 305.517 792.732 305.794 792.385 306.158C792.056 306.522 791.796 306.955 791.605 307.458C791.414 307.943 791.319 308.481 791.319 309.07V309.252H798.729V308.966C798.729 307.77 798.4 306.817 797.741 306.106C797.1 305.378 796.242 305.014 795.167 305.014ZM808.163 317.312C806.915 317.312 805.866 317.078 805.017 316.61C804.185 316.125 803.465 315.483 802.859 314.686L804.341 313.49C804.861 314.149 805.441 314.66 806.083 315.024C806.724 315.371 807.469 315.544 808.319 315.544C809.203 315.544 809.887 315.353 810.373 314.972C810.875 314.591 811.127 314.053 811.127 313.36C811.127 312.84 810.953 312.398 810.607 312.034C810.277 311.653 809.671 311.393 808.787 311.254L807.721 311.098C807.097 311.011 806.525 310.881 806.005 310.708C805.485 310.517 805.025 310.275 804.627 309.98C804.245 309.668 803.942 309.287 803.717 308.836C803.509 308.385 803.405 307.848 803.405 307.224C803.405 306.565 803.526 305.993 803.769 305.508C804.011 305.005 804.341 304.589 804.757 304.26C805.19 303.931 805.701 303.688 806.291 303.532C806.88 303.359 807.513 303.272 808.189 303.272C809.281 303.272 810.191 303.463 810.919 303.844C811.664 304.225 812.314 304.754 812.869 305.43L811.491 306.678C811.196 306.262 810.763 305.889 810.191 305.56C809.619 305.213 808.899 305.04 808.033 305.04C807.166 305.04 806.507 305.231 806.057 305.612C805.623 305.976 805.407 306.479 805.407 307.12C805.407 307.779 805.623 308.255 806.057 308.55C806.507 308.845 807.149 309.061 807.981 309.2L809.021 309.356C810.511 309.581 811.569 310.015 812.193 310.656C812.817 311.28 813.129 312.103 813.129 313.126C813.129 314.426 812.687 315.449 811.803 316.194C810.919 316.939 809.705 317.312 808.163 317.312ZM819.329 317C818.601 317 818.046 316.801 817.665 316.402C817.301 315.986 817.119 315.449 817.119 314.79V305.404H814.909V303.584H816.157C816.607 303.584 816.911 303.497 817.067 303.324C817.24 303.133 817.327 302.813 817.327 302.362V299.866H819.199V303.584H822.137V305.404H819.199V315.18H821.929V317H819.329ZM831.104 317V303.584H833.184V306.054H833.314C833.557 305.413 833.99 304.841 834.614 304.338C835.238 303.835 836.096 303.584 837.188 303.584H837.994V305.664H836.772C835.646 305.664 834.762 305.881 834.12 306.314C833.496 306.73 833.184 307.259 833.184 307.9V317H831.104ZM845.308 317.312C844.39 317.312 843.558 317.147 842.812 316.818C842.084 316.489 841.452 316.021 840.914 315.414C840.394 314.79 839.987 314.053 839.692 313.204C839.415 312.337 839.276 311.367 839.276 310.292C839.276 309.235 839.415 308.273 839.692 307.406C839.987 306.539 840.394 305.803 840.914 305.196C841.452 304.572 842.084 304.095 842.812 303.766C843.558 303.437 844.39 303.272 845.308 303.272C846.21 303.272 847.016 303.437 847.726 303.766C848.437 304.095 849.044 304.555 849.546 305.144C850.049 305.716 850.43 306.401 850.69 307.198C850.968 307.995 851.106 308.871 851.106 309.824V310.812H841.46V311.436C841.46 312.008 841.547 312.545 841.72 313.048C841.911 313.533 842.171 313.958 842.5 314.322C842.847 314.686 843.263 314.972 843.748 315.18C844.251 315.388 844.814 315.492 845.438 315.492C846.288 315.492 847.024 315.293 847.648 314.894C848.29 314.495 848.784 313.923 849.13 313.178L850.612 314.244C850.179 315.163 849.503 315.908 848.584 316.48C847.666 317.035 846.574 317.312 845.308 317.312ZM845.308 305.014C844.736 305.014 844.216 305.118 843.748 305.326C843.28 305.517 842.873 305.794 842.526 306.158C842.197 306.522 841.937 306.955 841.746 307.458C841.556 307.943 841.46 308.481 841.46 309.07V309.252H848.87V308.966C848.87 307.77 848.541 306.817 847.882 306.106C847.241 305.378 846.383 305.014 845.308 305.014ZM859.266 317.312C858.33 317.312 857.489 317.147 856.744 316.818C855.999 316.489 855.366 316.021 854.846 315.414C854.343 314.807 853.953 314.071 853.676 313.204C853.416 312.337 853.286 311.367 853.286 310.292C853.286 309.217 853.416 308.247 853.676 307.38C853.953 306.513 854.343 305.777 854.846 305.17C855.366 304.563 855.999 304.095 856.744 303.766C857.489 303.437 858.33 303.272 859.266 303.272C860.601 303.272 861.667 303.567 862.464 304.156C863.279 304.728 863.885 305.482 864.284 306.418L862.542 307.302C862.299 306.609 861.901 306.071 861.346 305.69C860.791 305.309 860.098 305.118 859.266 305.118C858.642 305.118 858.096 305.222 857.628 305.43C857.16 305.621 856.77 305.898 856.458 306.262C856.146 306.609 855.912 307.033 855.756 307.536C855.6 308.021 855.522 308.559 855.522 309.148V311.436C855.522 312.615 855.834 313.585 856.458 314.348C857.099 315.093 858.035 315.466 859.266 315.466C860.947 315.466 862.161 314.686 862.906 313.126L864.414 314.14C863.981 315.111 863.331 315.882 862.464 316.454C861.615 317.026 860.549 317.312 859.266 317.312ZM872.008 317.312C871.106 317.312 870.283 317.147 869.538 316.818C868.792 316.489 868.151 316.021 867.614 315.414C867.094 314.79 866.686 314.053 866.392 313.204C866.097 312.337 865.95 311.367 865.95 310.292C865.95 309.235 866.097 308.273 866.392 307.406C866.686 306.539 867.094 305.803 867.614 305.196C868.151 304.572 868.792 304.095 869.538 303.766C870.283 303.437 871.106 303.272 872.008 303.272C872.909 303.272 873.724 303.437 874.452 303.766C875.197 304.095 875.838 304.572 876.376 305.196C876.913 305.803 877.329 306.539 877.624 307.406C877.918 308.273 878.066 309.235 878.066 310.292C878.066 311.367 877.918 312.337 877.624 313.204C877.329 314.053 876.913 314.79 876.376 315.414C875.838 316.021 875.197 316.489 874.452 316.818C873.724 317.147 872.909 317.312 872.008 317.312ZM872.008 315.466C873.134 315.466 874.053 315.119 874.764 314.426C875.474 313.733 875.83 312.675 875.83 311.254V309.33C875.83 307.909 875.474 306.851 874.764 306.158C874.053 305.465 873.134 305.118 872.008 305.118C870.881 305.118 869.962 305.465 869.252 306.158C868.541 306.851 868.186 307.909 868.186 309.33V311.254C868.186 312.675 868.541 313.733 869.252 314.426C869.962 315.119 870.881 315.466 872.008 315.466ZM881.227 317V303.584H883.307V305.768H883.411C883.567 305.421 883.74 305.101 883.931 304.806C884.139 304.494 884.381 304.225 884.659 304C884.953 303.775 885.291 303.601 885.673 303.48C886.054 303.341 886.505 303.272 887.025 303.272C887.909 303.272 888.723 303.489 889.469 303.922C890.214 304.338 890.769 305.031 891.133 306.002H891.185C891.427 305.274 891.878 304.641 892.537 304.104C893.213 303.549 894.123 303.272 895.267 303.272C896.636 303.272 897.702 303.723 898.465 304.624C899.245 305.508 899.635 306.765 899.635 308.394V317H897.555V308.758C897.555 307.562 897.321 306.661 896.853 306.054C896.385 305.447 895.639 305.144 894.617 305.144C894.201 305.144 893.802 305.196 893.421 305.3C893.057 305.404 892.727 305.56 892.433 305.768C892.138 305.976 891.904 306.245 891.731 306.574C891.557 306.886 891.471 307.259 891.471 307.692V317H889.391V308.758C889.391 307.562 889.157 306.661 888.689 306.054C888.221 305.447 887.493 305.144 886.505 305.144C886.089 305.144 885.69 305.196 885.309 305.3C884.927 305.404 884.589 305.56 884.295 305.768C884 305.976 883.757 306.245 883.567 306.574C883.393 306.886 883.307 307.259 883.307 307.692V317H881.227ZM908.71 317.312C907.791 317.312 906.959 317.147 906.214 316.818C905.486 316.489 904.853 316.021 904.316 315.414C903.796 314.79 903.388 314.053 903.094 313.204C902.816 312.337 902.678 311.367 902.678 310.292C902.678 309.235 902.816 308.273 903.094 307.406C903.388 306.539 903.796 305.803 904.316 305.196C904.853 304.572 905.486 304.095 906.214 303.766C906.959 303.437 907.791 303.272 908.71 303.272C909.611 303.272 910.417 303.437 911.128 303.766C911.838 304.095 912.445 304.555 912.948 305.144C913.45 305.716 913.832 306.401 914.092 307.198C914.369 307.995 914.508 308.871 914.508 309.824V310.812H904.862V311.436C904.862 312.008 904.948 312.545 905.122 313.048C905.312 313.533 905.572 313.958 905.902 314.322C906.248 314.686 906.664 314.972 907.15 315.18C907.652 315.388 908.216 315.492 908.84 315.492C909.689 315.492 910.426 315.293 911.05 314.894C911.691 314.495 912.185 313.923 912.532 313.178L914.014 314.244C913.58 315.163 912.904 315.908 911.986 316.48C911.067 317.035 909.975 317.312 908.71 317.312ZM908.71 305.014C908.138 305.014 907.618 305.118 907.15 305.326C906.682 305.517 906.274 305.794 905.928 306.158C905.598 306.522 905.338 306.955 905.148 307.458C904.957 307.943 904.862 308.481 904.862 309.07V309.252H912.272V308.966C912.272 307.77 911.942 306.817 911.284 306.106C910.642 305.378 909.784 305.014 908.71 305.014ZM917.675 317V303.584H919.755V305.768H919.859C920.189 305.005 920.648 304.399 921.237 303.948C921.844 303.497 922.65 303.272 923.655 303.272C925.042 303.272 926.134 303.723 926.931 304.624C927.746 305.508 928.153 306.765 928.153 308.394V317H926.073V308.758C926.073 306.349 925.059 305.144 923.031 305.144C922.615 305.144 922.208 305.196 921.809 305.3C921.428 305.404 921.081 305.56 920.769 305.768C920.457 305.976 920.206 306.245 920.015 306.574C919.842 306.886 919.755 307.259 919.755 307.692V317H917.675ZM940.773 314.816H940.669C939.854 316.48 938.545 317.312 936.743 317.312C935.911 317.312 935.157 317.147 934.481 316.818C933.805 316.489 933.224 316.021 932.739 315.414C932.271 314.807 931.907 314.071 931.647 313.204C931.404 312.337 931.283 311.367 931.283 310.292C931.283 309.217 931.404 308.247 931.647 307.38C931.907 306.513 932.271 305.777 932.739 305.17C933.224 304.563 933.805 304.095 934.481 303.766C935.157 303.437 935.911 303.272 936.743 303.272C937.679 303.272 938.476 303.48 939.135 303.896C939.811 304.295 940.322 304.919 940.669 305.768H940.773V297.76H942.853V317H940.773V314.816ZM937.315 315.44C937.783 315.44 938.225 315.379 938.641 315.258C939.074 315.137 939.447 314.963 939.759 314.738C940.071 314.495 940.313 314.209 940.487 313.88C940.677 313.533 940.773 313.143 940.773 312.71V307.718C940.773 307.354 940.677 307.016 940.487 306.704C940.313 306.375 940.071 306.097 939.759 305.872C939.447 305.647 939.074 305.473 938.641 305.352C938.225 305.213 937.783 305.144 937.315 305.144C936.136 305.144 935.209 305.517 934.533 306.262C933.857 306.99 933.519 307.952 933.519 309.148V311.436C933.519 312.632 933.857 313.603 934.533 314.348C935.209 315.076 936.136 315.44 937.315 315.44ZM956.765 317C955.985 317 955.421 316.792 955.075 316.376C954.745 315.96 954.537 315.44 954.451 314.816H954.321C954.026 315.648 953.541 316.272 952.865 316.688C952.189 317.104 951.383 317.312 950.447 317.312C949.025 317.312 947.916 316.948 947.119 316.22C946.339 315.492 945.949 314.504 945.949 313.256C945.949 311.991 946.408 311.02 947.327 310.344C948.263 309.668 949.71 309.33 951.669 309.33H954.321V308.004C954.321 307.051 954.061 306.323 953.541 305.82C953.021 305.317 952.223 305.066 951.149 305.066C950.334 305.066 949.649 305.248 949.095 305.612C948.557 305.976 948.107 306.461 947.743 307.068L946.495 305.898C946.859 305.17 947.439 304.555 948.237 304.052C949.034 303.532 950.039 303.272 951.253 303.272C952.882 303.272 954.147 303.671 955.049 304.468C955.95 305.265 956.401 306.375 956.401 307.796V315.18H957.935V317H956.765ZM950.785 315.544C951.305 315.544 951.781 315.483 952.215 315.362C952.648 315.241 953.021 315.067 953.333 314.842C953.645 314.617 953.887 314.357 954.061 314.062C954.234 313.767 954.321 313.447 954.321 313.1V310.89H951.565C950.369 310.89 949.493 311.063 948.939 311.41C948.401 311.757 948.133 312.259 948.133 312.918V313.464C948.133 314.123 948.367 314.634 948.835 314.998C949.32 315.362 949.97 315.544 950.785 315.544ZM963.607 317C962.879 317 962.325 316.801 961.943 316.402C961.579 315.986 961.397 315.449 961.397 314.79V305.404H959.187V303.584H960.435C960.886 303.584 961.189 303.497 961.345 303.324C961.519 303.133 961.605 302.813 961.605 302.362V299.866H963.477V303.584H966.415V305.404H963.477V315.18H966.207V317H963.607ZM970.539 300.438C970.088 300.438 969.759 300.334 969.551 300.126C969.36 299.901 969.265 299.615 969.265 299.268V298.93C969.265 298.583 969.36 298.306 969.551 298.098C969.759 297.873 970.088 297.76 970.539 297.76C970.989 297.76 971.31 297.873 971.501 298.098C971.709 298.306 971.813 298.583 971.813 298.93V299.268C971.813 299.615 971.709 299.901 971.501 300.126C971.31 300.334 970.989 300.438 970.539 300.438ZM969.499 303.584H971.579V317H969.499V303.584ZM980.809 317.312C979.907 317.312 979.084 317.147 978.339 316.818C977.593 316.489 976.952 316.021 976.415 315.414C975.895 314.79 975.487 314.053 975.193 313.204C974.898 312.337 974.751 311.367 974.751 310.292C974.751 309.235 974.898 308.273 975.193 307.406C975.487 306.539 975.895 305.803 976.415 305.196C976.952 304.572 977.593 304.095 978.339 303.766C979.084 303.437 979.907 303.272 980.809 303.272C981.71 303.272 982.525 303.437 983.253 303.766C983.998 304.095 984.639 304.572 985.177 305.196C985.714 305.803 986.13 306.539 986.425 307.406C986.719 308.273 986.867 309.235 986.867 310.292C986.867 311.367 986.719 312.337 986.425 313.204C986.13 314.053 985.714 314.79 985.177 315.414C984.639 316.021 983.998 316.489 983.253 316.818C982.525 317.147 981.71 317.312 980.809 317.312ZM980.809 315.466C981.935 315.466 982.854 315.119 983.565 314.426C984.275 313.733 984.631 312.675 984.631 311.254V309.33C984.631 307.909 984.275 306.851 983.565 306.158C982.854 305.465 981.935 305.118 980.809 305.118C979.682 305.118 978.763 305.465 978.053 306.158C977.342 306.851 976.987 307.909 976.987 309.33V311.254C976.987 312.675 977.342 313.733 978.053 314.426C978.763 315.119 979.682 315.466 980.809 315.466ZM990.027 317V303.584H992.107V305.768H992.211C992.541 305.005 993 304.399 993.589 303.948C994.196 303.497 995.002 303.272 996.007 303.272C997.394 303.272 998.486 303.723 999.283 304.624C1000.1 305.508 1000.51 306.765 1000.51 308.394V317H998.425V308.758C998.425 306.349 997.411 305.144 995.383 305.144C994.967 305.144 994.56 305.196 994.161 305.3C993.78 305.404 993.433 305.56 993.121 305.768C992.809 305.976 992.558 306.245 992.367 306.574C992.194 306.886 992.107 307.259 992.107 307.692V317H990.027ZM1008.57 317.312C1007.33 317.312 1006.28 317.078 1005.43 316.61C1004.6 316.125 1003.88 315.483 1003.27 314.686L1004.75 313.49C1005.27 314.149 1005.85 314.66 1006.49 315.024C1007.14 315.371 1007.88 315.544 1008.73 315.544C1009.61 315.544 1010.3 315.353 1010.78 314.972C1011.29 314.591 1011.54 314.053 1011.54 313.36C1011.54 312.84 1011.37 312.398 1011.02 312.034C1010.69 311.653 1010.08 311.393 1009.2 311.254L1008.13 311.098C1007.51 311.011 1006.94 310.881 1006.42 310.708C1005.9 310.517 1005.44 310.275 1005.04 309.98C1004.66 309.668 1004.35 309.287 1004.13 308.836C1003.92 308.385 1003.82 307.848 1003.82 307.224C1003.82 306.565 1003.94 305.993 1004.18 305.508C1004.42 305.005 1004.75 304.589 1005.17 304.26C1005.6 303.931 1006.11 303.688 1006.7 303.532C1007.29 303.359 1007.92 303.272 1008.6 303.272C1009.69 303.272 1010.6 303.463 1011.33 303.844C1012.08 304.225 1012.73 304.754 1013.28 305.43L1011.9 306.678C1011.61 306.262 1011.17 305.889 1010.6 305.56C1010.03 305.213 1009.31 305.04 1008.44 305.04C1007.58 305.04 1006.92 305.231 1006.47 305.612C1006.04 305.976 1005.82 306.479 1005.82 307.12C1005.82 307.779 1006.04 308.255 1006.47 308.55C1006.92 308.845 1007.56 309.061 1008.39 309.2L1009.43 309.356C1010.92 309.581 1011.98 310.015 1012.6 310.656C1013.23 311.28 1013.54 312.103 1013.54 313.126C1013.54 314.426 1013.1 315.449 1012.21 316.194C1011.33 316.939 1010.12 317.312 1008.57 317.312Z" fill="#1C0D3E"/>
<circle cx="458" cy="150" r="110" fill="#F74874"/>
<path fill-rule="evenodd" clip-rule="evenodd" d="M416.443 91.5215C418.25 89.7149 420.701 88.7 423.256 88.7H502.279C507.388 88.7 511.53 92.8416 511.53 97.9505V176.974C511.53 179.529 510.515 181.98 508.708 183.787L476.7 215.802C470.873 221.629 460.908 217.502 460.908 209.26V183.004H426.476C421.367 183.004 417.225 178.863 417.225 173.754V139.321H390.969C382.728 139.321 378.6 129.357 384.428 123.529L416.443 91.5215ZM424.163 139.321V173.754C424.163 175.031 425.199 176.066 426.476 176.066H460.908V141.634C460.908 140.356 459.873 139.321 458.596 139.321H424.163ZM467.846 176.066V141.634C467.846 136.525 463.705 132.383 458.596 132.383H424.163V103.832C424.162 103.807 424.162 103.782 424.162 103.756V97.9433C424.162 96.6697 425.194 95.6372 426.468 95.6372H435.141C435.16 95.6372 435.179 95.6374 435.198 95.6379H502.279C503.556 95.6379 504.592 96.6733 504.592 97.9505V167.868C504.593 167.894 504.593 167.921 504.593 167.948V173.761C504.593 175.035 503.56 176.067 502.287 176.067H485.337C485.317 176.067 485.298 176.067 485.278 176.066H467.846ZM467.846 183.004V209.26C467.846 211.321 470.337 212.353 471.794 210.896L499.685 183.004H467.846ZM415.909 101.86L417.225 100.538V132.383H390.969C388.909 132.383 387.877 129.892 389.334 128.435L415.909 101.86Z" fill="white"/>
<rect x="833" y="55" width="160" height="15" fill="#9DA3AF"/>
<rect x="836" y="142" width="160" height="15" fill="#9DA3AF"/>
<rect x="841" y="228" width="160" height="15" fill="#9DA3AF"/>
<circle cx="796.5" cy="64.5" r="24.5" fill="#F74874"/>
<rect x="783.772" y="56.7218" width="7" height="29" rx="3.5" transform="rotate(-45 783.772 56.7218)" fill="white"/>
<rect x="788.722" y="77.2279" width="7" height="29" rx="3.5" transform="rotate(-135 788.722 77.2279)" fill="white"/>
<circle cx="796.5" cy="149.5" r="24.5" fill="#36B37E"/>
<path d="M798.121 159.021L795.646 161.496C794.28 162.863 792.064 162.863 790.697 161.496L781.504 152.303C780.137 150.936 780.137 148.72 781.504 147.354C782.871 145.987 785.087 145.987 786.454 147.354L793.172 154.071L805.546 141.697C806.913 140.33 809.129 140.33 810.496 141.697C811.863 143.064 811.863 145.28 810.496 146.646L798.121 159.021Z" fill="white"/>
<circle cx="796.5" cy="235.5" r="24.5" fill="#36B37E"/>
<path d="M798.121 245.021L795.646 247.496C794.28 248.863 792.064 248.863 790.697 247.496L781.504 238.303C780.137 236.936 780.137 234.72 781.504 233.354C782.871 231.987 785.087 231.987 786.454 233.354L793.172 240.071L805.546 227.697C806.913 226.33 809.129 226.33 810.496 227.697C811.863 229.064 811.863 231.28 810.496 232.646L798.121 245.021Z" fill="white"/>
</g>
<defs>
<filter id="filter0_d" x="45" y="52" width="172" height="205" filterUnits="userSpaceOnUse" color-interpolation-filters="sRGB">
<feFlood flood-opacity="0" result="BackgroundImageFix"/>
<feColorMatrix in="SourceAlpha" type="matrix" values="0 0 0 0 0 0 0 0 0 0 0 0 0 0 0 0 0 0 127 0"/>
<feOffset dx="4" dy="4"/>
<feGaussianBlur stdDeviation="4"/>
<feColorMatrix type="matrix" values="0 0 0 0 0 0 0 0 0 0 0 0 0 0 0 0 0 0 0.3 0"/>
<feBlend mode="normal" in2="BackgroundImageFix" result="effect1_dropShadow"/>
<feBlend mode="normal" in="SourceGraphic" in2="effect1_dropShadow" result="shape"/>
</filter>
<filter id="filter1_d" x="61" y="36" width="172" height="205" filterUnits="userSpaceOnUse" color-interpolation-filters="sRGB">
<feFlood flood-opacity="0" result="BackgroundImageFix"/>
<feColorMatrix in="SourceAlpha" type="matrix" values="0 0 0 0 0 0 0 0 0 0 0 0 0 0 0 0 0 0 127 0"/>
<feOffset dx="4" dy="4"/>
<feGaussianBlur stdDeviation="4"/>
<feColorMatrix type="matrix" values="0 0 0 0 0 0 0 0 0 0 0 0 0 0 0 0 0 0 0.3 0"/>
<feBlend mode="normal" in2="BackgroundImageFix" result="effect1_dropShadow"/>
<feBlend mode="normal" in="SourceGraphic" in2="effect1_dropShadow" result="shape"/>
</filter>
<filter id="filter2_d" x="160" y="36" width="72.717" height="73" filterUnits="userSpaceOnUse" color-interpolation-filters="sRGB">
<feFlood flood-opacity="0" result="BackgroundImageFix"/>
<feColorMatrix in="SourceAlpha" type="matrix" values="0 0 0 0 0 0 0 0 0 0 0 0 0 0 0 0 0 0 127 0"/>
<feOffset dx="4" dy="4"/>
<feGaussianBlur stdDeviation="4"/>
<feColorMatrix type="matrix" values="0 0 0 0 0 0 0 0 0 0 0 0 0 0 0 0 0 0 0.25 0"/>
<feBlend mode="normal" in2="BackgroundImageFix" result="effect1_dropShadow"/>
<feBlend mode="normal" in="SourceGraphic" in2="effect1_dropShadow" result="shape"/>
</filter>
<clipPath id="clip0">
<rect width="1065" height="354" fill="white"/>
</clipPath>
</defs>
</svg>
